<svg width="100%" height="auto" viewBox="0 0 500 500" fill="none" xmlns="http://www.w3.org/2000/svg">
<g clip-path="url(#clip0_288_2)">
<path d="M500 0H0V500H500V0Z" fill="#974D03"/>
<path opacity="0.05" d="M265.94 461.79L434.83 364.29C446.3 357.67 446.3 341.11 434.83 334.49L269.2 238.87C257.14 231.91 242.27 231.91 230.21 238.87L52.16 341.66C43.28 346.79 43.28 359.61 52.16 364.74L220.27 461.79C234.4 469.95 251.81 469.95 265.94 461.79Z" stroke="#00FFFF" strokeWidth="0.7021" stroke-miterlimit="10"/>
<path opacity="0.1" d="M265.94 455.18L434.83 357.68C446.3 351.06 446.3 334.5 434.83 327.88L269.2 232.26C257.14 225.3 242.27 225.3 230.21 232.26L52.16 335.05C43.28 340.18 43.28 353 52.16 358.13L220.27 455.18C234.4 463.34 251.81 463.34 265.94 455.18Z" stroke="#00FFFF" strokeWidth="0.7021" stroke-miterlimit="10"/>
<path opacity="0.15" d="M265.94 448.57L434.83 351.07C446.3 344.45 446.3 327.89 434.83 321.27L269.2 225.65C257.14 218.69 242.27 218.69 230.21 225.65L52.16 328.43C43.28 333.56 43.28 346.38 52.16 351.51L220.27 448.56C234.4 456.73 251.81 456.73 265.94 448.57Z" stroke="#00FFFF" strokeWidth="0.7021" stroke-miterlimit="10"/>
<path opacity="0.2" d="M265.94 441.96L434.83 344.46C446.3 337.84 446.3 321.28 434.83 314.66L269.2 219.04C257.14 212.08 242.27 212.08 230.21 219.04L52.16 321.82C43.28 326.95 43.28 339.77 52.16 344.9L220.27 441.95C234.4 450.11 251.81 450.11 265.94 441.96Z" stroke="#00FFFF" strokeWidth="0.7021" stroke-miterlimit="10"/>
<path opacity="0.4" d="M265.94 435.34L434.83 337.84C446.3 331.22 446.3 314.66 434.83 308.04L269.2 212.42C257.14 205.46 242.27 205.46 230.21 212.42L52.16 315.21C43.28 320.34 43.28 333.16 52.16 338.29L220.27 435.34C234.4 443.5 251.81 443.5 265.94 435.34Z" stroke="#00FFFF" strokeWidth="0.7021" stroke-miterlimit="10"/>
<path opacity="0.6" d="M265.94 428.73L434.83 331.23C446.3 324.61 446.3 308.05 434.83 301.43L269.2 205.81C257.14 198.85 242.27 198.85 230.21 205.81L52.16 308.6C43.28 313.73 43.28 326.55 52.16 331.68L220.27 428.73C234.4 436.89 251.81 436.89 265.94 428.73Z" stroke="#00FFFF" strokeWidth="0.7021" stroke-miterlimit="10"/>
<path opacity="0.8" d="M265.94 422.12L434.83 324.62C446.3 318 446.3 301.44 434.83 294.82L269.2 199.2C257.14 192.24 242.27 192.24 230.21 199.2L52.16 301.98C43.28 307.11 43.28 319.93 52.16 325.06L220.27 422.11C234.4 430.28 251.81 430.28 265.94 422.12Z" stroke="#00FFFF" strokeWidth="0.7021" stroke-miterlimit="10"/>
<path d="M265.94 415.51L434.83 318.01C446.3 311.39 446.3 294.83 434.83 288.21L269.2 192.59C257.14 185.63 242.27 185.63 230.21 192.59L52.16 295.37C43.28 300.5 43.28 313.32 52.16 318.45L220.27 415.5C234.4 423.66 251.81 423.66 265.94 415.51Z" stroke="#00FFFF" strokeWidth="0.7021" stroke-miterlimit="10"/>
<path d="M265.94 404.12L434.83 306.62C446.3 300 446.3 283.44 434.83 276.82L269.2 181.2C257.14 174.24 242.27 174.24 230.21 181.2L52.16 283.98C43.28 289.11 43.28 301.93 52.16 307.06L220.27 404.11C234.4 412.28 251.81 412.28 265.94 404.12Z" stroke="#0098A0" strokeWidth="8.7083" stroke-miterlimit="10"/>
<path d="M265.47 400.27L255.91 394.75L275.04 383.7L287.8 391.07L268.66 402.11L265.47 400.27Z" fill="#0098A0"/>
<path d="M403.84 318.29L394.27 312.77L413.4 301.72L426.16 309.09L407.03 320.13L403.84 318.29Z" fill="#0098A0"/>
<path d="M341.06 120.63L461.04 189.9" stroke="url(#paint0_linear_288_2)" strokeWidth="1.4043" stroke-miterlimit="10" stroke-linecap="round"/>
<path d="M221.32 129.64L101.34 198.91" stroke="url(#paint1_linear_288_2)" strokeWidth="1.4043" stroke-miterlimit="10" stroke-linecap="round"/>
<path d="M249.71 76.24L129.73 145.51" stroke="url(#paint2_linear_288_2)" strokeWidth="1.4043" stroke-miterlimit="10" stroke-linecap="round"/>
<path d="M358.33 350.78L287.56 310.02" stroke="#0098A0" strokeWidth="8.7083" stroke-miterlimit="10"/>
<path d="M121.55 347.12L188.24 308.62" stroke="#0098A0" strokeWidth="8.7083" stroke-miterlimit="10"/>
<path d="M195.08 217.07L220.13 202.61L245.18 217.07L220.13 231.54L195.08 217.07Z" fill="#049B9B"/>
<path d="M195.08 217.07V229.8L220.13 244.27V231.54L195.08 217.07Z" fill="#015E68"/>
<path d="M245.18 217.07V229.8L220.13 244.27V231.54L245.18 217.07Z" fill="#03767C"/>
<path d="M199.4 100.21L220.13 88.24L240.86 100.21L220.13 112.17L199.4 100.21Z" fill="#049B9B"/>
<path d="M203.46 100.21L220.13 90.58L236.8 100.21L220.13 109.83L203.46 100.21Z" fill="#03726F"/>
<path d="M220.13 92.93L234.77 101.38L236.8 100.21L220.13 90.58L203.46 100.21L205.49 101.38L220.13 92.93Z" fill="#025450"/>
<path d="M199.4 100.21V216.19L220.13 228.15V112.17L199.4 100.21Z" fill="#015E68"/>
<path d="M240.86 100.21V216.19L220.13 228.15V112.17L240.86 100.21Z" fill="#03767C"/>
<path d="M201.53 106.51L203.85 107.85V113.14L201.53 111.81V106.51Z" fill="#0BFF6E"/>
<path d="M206 109.09L208.31 110.42V115.72L206 114.38V109.09Z" fill="#0BFF6E"/>
<path d="M210.46 111.66L212.78 113V118.3L210.46 116.96V111.66Z" fill="#0BFF6E"/>
<path d="M214.93 114.24L217.24 115.58V120.87L214.93 119.54V114.24Z" fill="#0BFF6E"/>
<path d="M201.53 117.23L203.85 118.56V123.86L201.53 122.52V117.23Z" fill="#0BFF6E"/>
<path d="M206 119.8L208.31 121.14V126.44L206 125.1V119.8Z" fill="#0BFF6E"/>
<path d="M210.46 122.38L212.78 123.72V129.01L210.46 127.68V122.38Z" fill="#0BFF6E"/>
<path d="M214.93 124.96L217.24 126.29V131.59L214.93 130.25V124.96Z" fill="#0BFF6E"/>
<path d="M201.53 127.94L203.85 129.28V134.58L201.53 133.24V127.94Z" fill="#0BFF6E"/>
<path d="M206 130.52L208.31 131.86V137.15L206 135.82V130.52Z" fill="#0BFF6E"/>
<path d="M210.46 133.1L212.78 134.43V139.73L210.46 138.39V133.1Z" fill="#0BFF6E"/>
<path d="M214.93 135.67L217.24 137.01V142.31L214.93 140.97V135.67Z" fill="#0BFF6E"/>
<path d="M201.53 138.66L203.85 140V145.29L201.53 143.96V138.66Z" fill="#0BFF6E"/>
<path d="M206 141.24L208.31 142.57V147.87L206 146.53V141.24Z" fill="#0BFF6E"/>
<path d="M210.46 143.81L212.78 145.15V150.45L210.46 149.11V143.81Z" fill="#0BFF6E"/>
<path d="M214.93 146.39L217.24 147.72V153.02L214.93 151.68V146.39Z" fill="#0BFF6E"/>
<path d="M201.53 149.38L203.85 150.71V156.01L201.53 154.67V149.38Z" fill="#0BFF6E"/>
<path d="M206 151.95L208.31 153.29V158.59L206 157.25V151.95Z" fill="#0BFF6E"/>
<path d="M210.46 154.53L212.78 155.86V161.16L210.46 159.82V154.53Z" fill="#0BFF6E"/>
<path d="M214.93 157.1L217.24 158.44V163.74L214.93 162.4V157.1Z" fill="#0BFF6E"/>
<path d="M201.53 160.09L203.85 161.43V166.73L201.53 165.39V160.09Z" fill="#0BFF6E"/>
<path d="M206 162.67L208.31 164V169.3L206 167.96V162.67Z" fill="#0BFF6E"/>
<path d="M210.46 165.24L212.78 166.58V171.88L210.46 170.54V165.24Z" fill="#0BFF6E"/>
<path d="M214.93 167.82L217.24 169.16V174.45L214.93 173.12V167.82Z" fill="#0BFF6E"/>
<path d="M201.53 170.81L203.85 172.14V177.44L201.53 176.1V170.81Z" fill="#0BFF6E"/>
<path d="M206 173.38L208.31 174.72V180.02L206 178.68V173.38Z" fill="#0BFF6E"/>
<path d="M210.46 175.96L212.78 177.3V182.59L210.46 181.26V175.96Z" fill="#0BFF6E"/>
<path d="M214.93 178.54L217.24 179.87V185.17L214.93 183.83V178.54Z" fill="#0BFF6E"/>
<path d="M201.53 181.52L203.85 182.86V188.16L201.53 186.82V181.52Z" fill="#0BFF6E"/>
<path d="M206 184.1L208.31 185.44V190.73L206 189.4V184.1Z" fill="#0BFF6E"/>
<path d="M210.46 186.68L212.78 188.01V193.31L210.46 191.97V186.68Z" fill="#0BFF6E"/>
<path d="M214.93 189.25L217.24 190.59V195.89L214.93 194.55V189.25Z" fill="#0BFF6E"/>
<path d="M201.53 192.24L203.85 193.58V198.87L201.53 197.54V192.24Z" fill="#0BFF6E"/>
<path d="M206 194.82L208.31 196.15V201.45L206 200.11V194.82Z" fill="#0BFF6E"/>
<path d="M210.46 197.39L212.78 198.73V204.03L210.46 202.69V197.39Z" fill="#0BFF6E"/>
<path d="M214.93 199.97L217.24 201.3V206.6L214.93 205.27V199.97Z" fill="#0BFF6E"/>
<path d="M201.53 202.96L203.85 204.29V209.59L201.53 208.25V202.96Z" fill="#0BFF6E"/>
<path d="M206 205.53L208.31 206.87V212.17L206 210.83V205.53Z" fill="#0BFF6E"/>
<path d="M210.46 208.11L212.78 209.44V214.74L210.46 213.41V208.11Z" fill="#0BFF6E"/>
<path d="M214.93 210.68L217.24 212.02V217.32L214.93 215.98V210.68Z" fill="#0BFF6E"/>
<path d="M238.73 106.51L236.42 107.85V113.14L238.73 111.81V106.51Z" fill="#0BFF6E"/>
<path d="M234.27 109.09L231.95 110.42V115.72L234.27 114.38V109.09Z" fill="#0BFF6E"/>
<path d="M229.8 111.66L227.49 113V118.3L229.8 116.96V111.66Z" fill="#0BFF6E"/>
<path d="M225.34 114.24L223.02 115.58V120.87L225.34 119.54V114.24Z" fill="#0BFF6E"/>
<path d="M238.73 117.23L236.42 118.56V123.86L238.73 122.52V117.23Z" fill="#0BFF6E"/>
<path d="M234.27 119.8L231.95 121.14V126.44L234.27 125.1V119.8Z" fill="#0BFF6E"/>
<path d="M229.8 122.38L227.49 123.72V129.01L229.8 127.68V122.38Z" fill="#0BFF6E"/>
<path d="M225.34 124.96L223.02 126.29V131.59L225.34 130.25V124.96Z" fill="#0BFF6E"/>
<path d="M238.73 127.94L236.42 129.28V134.58L238.73 133.24V127.94Z" fill="#0BFF6E"/>
<path d="M234.27 130.52L231.95 131.86V137.15L234.27 135.82V130.52Z" fill="#0BFF6E"/>
<path d="M229.8 133.1L227.49 134.43V139.73L229.8 138.39V133.1Z" fill="#0BFF6E"/>
<path d="M225.34 135.67L223.02 137.01V142.31L225.34 140.97V135.67Z" fill="#0BFF6E"/>
<path d="M238.73 138.66L236.42 140V145.29L238.73 143.96V138.66Z" fill="#0BFF6E"/>
<path d="M234.27 141.24L231.95 142.57V147.87L234.27 146.53V141.24Z" fill="#0BFF6E"/>
<path d="M229.8 143.81L227.49 145.15V150.45L229.8 149.11V143.81Z" fill="#0BFF6E"/>
<path d="M225.34 146.39L223.02 147.72V153.02L225.34 151.68V146.39Z" fill="#0BFF6E"/>
<path d="M238.73 149.38L236.42 150.71V156.01L238.73 154.67V149.38Z" fill="#0BFF6E"/>
<path d="M234.27 151.95L231.95 153.29V158.59L234.27 157.25V151.95Z" fill="#0BFF6E"/>
<path d="M229.8 154.53L227.49 155.86V161.16L229.8 159.82V154.53Z" fill="#0BFF6E"/>
<path d="M225.34 157.1L223.02 158.44V163.74L225.34 162.4V157.1Z" fill="#0BFF6E"/>
<path d="M238.73 160.09L236.42 161.43V166.73L238.73 165.39V160.09Z" fill="#0BFF6E"/>
<path d="M234.27 162.67L231.95 164V169.3L234.27 167.96V162.67Z" fill="#0BFF6E"/>
<path d="M229.8 165.24L227.49 166.58V171.88L229.8 170.54V165.24Z" fill="#0BFF6E"/>
<path d="M225.34 167.82L223.02 169.16V174.45L225.34 173.12V167.82Z" fill="#0BFF6E"/>
<path d="M238.73 170.81L236.42 172.14V177.44L238.73 176.1V170.81Z" fill="#0BFF6E"/>
<path d="M234.27 173.38L231.95 174.72V180.02L234.27 178.68V173.38Z" fill="#0BFF6E"/>
<path d="M229.8 175.96L227.49 177.3V182.59L229.8 181.26V175.96Z" fill="#0BFF6E"/>
<path d="M225.34 178.54L223.02 179.87V185.17L225.34 183.83V178.54Z" fill="#0BFF6E"/>
<path d="M238.73 181.52L236.42 182.86V188.16L238.73 186.82V181.52Z" fill="#0BFF6E"/>
<path d="M234.27 184.1L231.95 185.44V190.73L234.27 189.4V184.1Z" fill="#0BFF6E"/>
<path d="M229.8 186.68L227.49 188.01V193.31L229.8 191.97V186.68Z" fill="#0BFF6E"/>
<path d="M225.34 189.25L223.02 190.59V195.89L225.34 194.55V189.25Z" fill="#0BFF6E"/>
<path d="M238.73 192.24L236.42 193.58V198.87L238.73 197.54V192.24Z" fill="#0BFF6E"/>
<path d="M234.27 194.82L231.95 196.15V201.45L234.27 200.11V194.82Z" fill="#0BFF6E"/>
<path d="M229.8 197.39L227.49 198.73V204.03L229.8 202.69V197.39Z" fill="#0BFF6E"/>
<path d="M225.34 199.97L223.02 201.3V206.6L225.34 205.27V199.97Z" fill="#0BFF6E"/>
<path d="M238.73 202.96L236.42 204.29V209.59L238.73 208.25V202.96Z" fill="#0BFF6E"/>
<path d="M234.27 205.53L231.95 206.87V212.17L234.27 210.83V205.53Z" fill="#0BFF6E"/>
<path d="M229.8 208.11L227.49 209.44V214.74L229.8 213.41V208.11Z" fill="#0BFF6E"/>
<path d="M225.34 210.68L223.02 212.02V217.32L225.34 215.98V210.68Z" fill="#0BFF6E"/>
<path d="M357.4 277.85L382.45 263.38L407.5 277.85L382.45 292.31L357.4 277.85Z" fill="#049B9B"/>
<path d="M357.4 277.85V290.57L382.45 305.04V292.31L357.4 277.85Z" fill="#015E68"/>
<path d="M407.5 277.85V290.57L382.45 305.04V292.31L407.5 277.85Z" fill="#03767C"/>
<path d="M361.72 160.98L382.45 149.01L403.18 160.98L382.45 172.95L361.72 160.98Z" fill="#049B9B"/>
<path d="M361.72 160.98V276.96L382.45 288.92V172.95L361.72 160.98Z" fill="#015E68"/>
<path d="M403.18 160.98V276.96L382.45 288.92V172.95L403.18 160.98Z" fill="#03767C"/>
<path d="M367.57 119.47L382.45 110.88L397.33 119.47L382.45 128.06L367.57 119.47Z" fill="#049B9B"/>
<path d="M367.57 119.47V159.67L382.45 168.27V128.06L367.57 119.47Z" fill="#015E68"/>
<path d="M397.33 119.47V159.67L382.45 168.27V128.06L397.33 119.47Z" fill="#03767C"/>
<path d="M371.59 89.6001L382.45 83.3301L393.32 89.6001L382.45 95.8701L371.59 89.6001Z" fill="#049B9B"/>
<path d="M374.5 89.6001L382.45 85.0101L390.4 89.6001L382.45 94.1901L374.5 89.6001Z" fill="#047F7C"/>
<path d="M382.45 85.9301L389.61 90.0601L390.4 89.6001L382.45 85.0101L374.5 89.6001L375.3 90.0601L382.45 85.9301Z" fill="#025450"/>
<path d="M371.59 89.6001V118.95L382.45 125.22V95.8701L371.59 89.6001Z" fill="#015E68"/>
<path d="M373.99 97.4901V113.83L380.04 117.33V100.98L373.99 97.4901Z" fill="#0BFF6E"/>
<path d="M393.32 89.6001V118.95L382.45 125.22V95.8701L393.32 89.6001Z" fill="#03767C"/>
<path d="M390.91 97.4901V113.83L384.86 117.33V100.98L390.91 97.4901Z" fill="#0BFF6E"/>
<path d="M363.85 167.28L366.17 168.62V173.91L363.85 172.58V167.28Z" fill="#0BFF6E"/>
<path d="M368.32 169.86L370.63 171.19V176.49L368.32 175.15V169.86Z" fill="#0BFF6E"/>
<path d="M372.78 172.43L375.1 173.77V179.07L372.78 177.73V172.43Z" fill="#0BFF6E"/>
<path d="M377.25 175.01L379.56 176.35V181.64L377.25 180.31V175.01Z" fill="#0BFF6E"/>
<path d="M369.7 128.9L371.15 129.74V133.08L369.7 132.24V128.9Z" fill="#0BFF6E"/>
<path d="M372.51 130.52L373.97 131.36V134.7L372.51 133.86V130.52Z" fill="#0BFF6E"/>
<path d="M375.32 132.15L376.78 132.99V136.32L375.32 135.48V132.15Z" fill="#0BFF6E"/>
<path d="M378.13 133.77L379.59 134.61V137.95L378.13 137.11V133.77Z" fill="#0BFF6E"/>
<path d="M369.7 137.41L371.15 138.26V141.59L369.7 140.75V137.41Z" fill="#0BFF6E"/>
<path d="M372.51 139.04L373.97 139.88V143.21L372.51 142.37V139.04Z" fill="#0BFF6E"/>
<path d="M375.32 140.66L376.78 141.5V144.84L375.32 144V140.66Z" fill="#0BFF6E"/>
<path d="M378.13 142.28L379.59 143.12V146.46L378.13 145.62V142.28Z" fill="#0BFF6E"/>
<path d="M369.7 145.93L371.15 146.77V150.1L369.7 149.26V145.93Z" fill="#0BFF6E"/>
<path d="M372.51 147.55L373.97 148.39V151.73L372.51 150.89V147.55Z" fill="#0BFF6E"/>
<path d="M375.32 149.17L376.78 150.01V153.35L375.32 152.51V149.17Z" fill="#0BFF6E"/>
<path d="M378.13 150.79L379.59 151.64V154.97L378.13 154.13V150.79Z" fill="#0BFF6E"/>
<path d="M395.21 128.9L393.75 129.74V133.08L395.21 132.24V128.9Z" fill="#0BFF6E"/>
<path d="M392.39 130.52L390.94 131.36V134.7L392.39 133.86V130.52Z" fill="#0BFF6E"/>
<path d="M389.58 132.15L388.12 132.99V136.32L389.58 135.48V132.15Z" fill="#0BFF6E"/>
<path d="M386.77 133.77L385.31 134.61V137.95L386.77 137.11V133.77Z" fill="#0BFF6E"/>
<path d="M395.21 137.41L393.75 138.26V141.59L395.21 140.75V137.41Z" fill="#0BFF6E"/>
<path d="M392.39 139.04L390.94 139.88V143.21L392.39 142.37V139.04Z" fill="#0BFF6E"/>
<path d="M389.58 140.66L388.12 141.5V144.84L389.58 144V140.66Z" fill="#0BFF6E"/>
<path d="M386.77 142.28L385.31 143.12V146.46L386.77 145.62V142.28Z" fill="#0BFF6E"/>
<path d="M395.21 145.93L393.75 146.77V150.1L395.21 149.26V145.93Z" fill="#0BFF6E"/>
<path d="M392.39 147.55L390.94 148.39V151.73L392.39 150.89V147.55Z" fill="#0BFF6E"/>
<path d="M389.58 149.17L388.12 150.01V153.35L389.58 152.51V149.17Z" fill="#0BFF6E"/>
<path d="M386.77 150.79L385.31 151.64V154.97L386.77 154.13V150.79Z" fill="#0BFF6E"/>
<path d="M363.85 178L366.17 179.33V184.63L363.85 183.29V178Z" fill="#0BFF6E"/>
<path d="M368.32 180.57L370.63 181.91V187.21L368.32 185.87V180.57Z" fill="#0BFF6E"/>
<path d="M372.78 183.15L375.1 184.49V189.78L372.78 188.45V183.15Z" fill="#0BFF6E"/>
<path d="M377.25 185.73L379.56 187.06V192.36L377.25 191.02V185.73Z" fill="#0BFF6E"/>
<path d="M363.85 188.71L366.17 190.05V195.35L363.85 194.01V188.71Z" fill="#0BFF6E"/>
<path d="M368.32 191.29L370.63 192.63V197.92L368.32 196.59V191.29Z" fill="#0BFF6E"/>
<path d="M372.78 193.87L375.1 195.2V200.5L372.78 199.16V193.87Z" fill="#0BFF6E"/>
<path d="M377.25 196.44L379.56 197.78V203.08L377.25 201.74V196.44Z" fill="#0BFF6E"/>
<path d="M363.85 199.43L366.17 200.77V206.06L363.85 204.73V199.43Z" fill="#0BFF6E"/>
<path d="M368.32 202.01L370.63 203.34V208.64L368.32 207.3V202.01Z" fill="#0BFF6E"/>
<path d="M372.78 204.58L375.1 205.92V211.22L372.78 209.88V204.58Z" fill="#0BFF6E"/>
<path d="M377.25 207.16L379.56 208.49V213.79L377.25 212.46V207.16Z" fill="#0BFF6E"/>
<path d="M363.85 210.15L366.17 211.48V216.78L363.85 215.44V210.15Z" fill="#0BFF6E"/>
<path d="M368.32 212.72L370.63 214.06V219.36L368.32 218.02V212.72Z" fill="#0BFF6E"/>
<path d="M372.78 215.3L375.1 216.63V221.93L372.78 220.6V215.3Z" fill="#0BFF6E"/>
<path d="M377.25 217.87L379.56 219.21V224.51L377.25 223.17V217.87Z" fill="#0BFF6E"/>
<path d="M363.85 220.86L366.17 222.2V227.5L363.85 226.16V220.86Z" fill="#0BFF6E"/>
<path d="M368.32 223.44L370.63 224.77V230.07L368.32 228.74V223.44Z" fill="#0BFF6E"/>
<path d="M372.78 226.01L375.1 227.35V232.65L372.78 231.31V226.01Z" fill="#0BFF6E"/>
<path d="M377.25 228.59L379.56 229.93V235.22L377.25 233.89V228.59Z" fill="#0BFF6E"/>
<path d="M363.85 231.58L366.17 232.91V238.21L363.85 236.88V231.58Z" fill="#0BFF6E"/>
<path d="M368.32 234.15L370.63 235.49V240.79L368.32 239.45V234.15Z" fill="#0BFF6E"/>
<path d="M372.78 236.73L375.1 238.07V243.36L372.78 242.03V236.73Z" fill="#0BFF6E"/>
<path d="M377.25 239.31L379.56 240.64V245.94L377.25 244.6V239.31Z" fill="#0BFF6E"/>
<path d="M363.85 242.29L366.17 243.63V248.93L363.85 247.59V242.29Z" fill="#0BFF6E"/>
<path d="M368.32 244.87L370.63 246.21V251.5L368.32 250.17V244.87Z" fill="#0BFF6E"/>
<path d="M372.78 247.45L375.1 248.78V254.08L372.78 252.74V247.45Z" fill="#0BFF6E"/>
<path d="M377.25 250.02L379.56 251.36V256.66L377.25 255.32V250.02Z" fill="#0BFF6E"/>
<path d="M363.85 253.01L366.17 254.35V259.64L363.85 258.31V253.01Z" fill="#0BFF6E"/>
<path d="M368.32 255.59L370.63 256.92V262.22L368.32 260.88V255.59Z" fill="#0BFF6E"/>
<path d="M372.78 258.16L375.1 259.5V264.8L372.78 263.46V258.16Z" fill="#0BFF6E"/>
<path d="M377.25 260.74L379.56 262.08V267.37L377.25 266.04V260.74Z" fill="#0BFF6E"/>
<path d="M363.85 263.73L366.17 265.06V270.36L363.85 269.02V263.73Z" fill="#0BFF6E"/>
<path d="M368.32 266.3L370.63 267.64V272.94L368.32 271.6V266.3Z" fill="#0BFF6E"/>
<path d="M372.78 268.88L375.1 270.22V275.51L372.78 274.18V268.88Z" fill="#0BFF6E"/>
<path d="M377.25 271.46L379.56 272.79V278.09L377.25 276.75V271.46Z" fill="#0BFF6E"/>
<path d="M401.05 167.28L398.74 168.62V173.91L401.05 172.58V167.28Z" fill="#0BFF6E"/>
<path d="M396.59 169.86L394.27 171.19V176.49L396.59 175.15V169.86Z" fill="#0BFF6E"/>
<path d="M392.12 172.43L389.81 173.77V179.07L392.12 177.73V172.43Z" fill="#0BFF6E"/>
<path d="M387.66 175.01L385.34 176.35V181.64L387.66 180.31V175.01Z" fill="#0BFF6E"/>
<path d="M401.05 178L398.74 179.33V184.63L401.05 183.29V178Z" fill="#0BFF6E"/>
<path d="M396.59 180.57L394.27 181.91V187.21L396.59 185.87V180.57Z" fill="#0BFF6E"/>
<path d="M392.12 183.15L389.81 184.49V189.78L392.12 188.45V183.15Z" fill="#0BFF6E"/>
<path d="M387.66 185.73L385.34 187.06V192.36L387.66 191.02V185.73Z" fill="#0BFF6E"/>
<path d="M401.05 188.71L398.74 190.05V195.35L401.05 194.01V188.71Z" fill="#0BFF6E"/>
<path d="M396.59 191.29L394.27 192.63V197.92L396.59 196.59V191.29Z" fill="#0BFF6E"/>
<path d="M392.12 193.87L389.81 195.2V200.5L392.12 199.16V193.87Z" fill="#0BFF6E"/>
<path d="M387.66 196.44L385.34 197.78V203.08L387.66 201.74V196.44Z" fill="#0BFF6E"/>
<path d="M401.05 199.43L398.74 200.77V206.06L401.05 204.73V199.43Z" fill="#0BFF6E"/>
<path d="M396.59 202.01L394.27 203.34V208.64L396.59 207.3V202.01Z" fill="#0BFF6E"/>
<path d="M392.12 204.58L389.81 205.92V211.22L392.12 209.88V204.58Z" fill="#0BFF6E"/>
<path d="M387.66 207.16L385.34 208.49V213.79L387.66 212.46V207.16Z" fill="#0BFF6E"/>
<path d="M401.05 210.15L398.74 211.48V216.78L401.05 215.44V210.15Z" fill="#0BFF6E"/>
<path d="M396.59 212.72L394.27 214.06V219.36L396.59 218.02V212.72Z" fill="#0BFF6E"/>
<path d="M392.12 215.3L389.81 216.63V221.93L392.12 220.6V215.3Z" fill="#0BFF6E"/>
<path d="M387.66 217.87L385.34 219.21V224.51L387.66 223.17V217.87Z" fill="#0BFF6E"/>
<path d="M401.05 220.86L398.74 222.2V227.5L401.05 226.16V220.86Z" fill="#0BFF6E"/>
<path d="M396.59 223.44L394.27 224.77V230.07L396.59 228.74V223.44Z" fill="#0BFF6E"/>
<path d="M392.12 226.01L389.81 227.35V232.65L392.12 231.31V226.01Z" fill="#0BFF6E"/>
<path d="M387.66 228.59L385.34 229.93V235.22L387.66 233.89V228.59Z" fill="#0BFF6E"/>
<path d="M401.05 231.58L398.74 232.91V238.21L401.05 236.88V231.58Z" fill="#0BFF6E"/>
<path d="M396.59 234.15L394.27 235.49V240.79L396.59 239.45V234.15Z" fill="#0BFF6E"/>
<path d="M392.12 236.73L389.81 238.07V243.36L392.12 242.03V236.73Z" fill="#0BFF6E"/>
<path d="M387.66 239.31L385.34 240.64V245.94L387.66 244.6V239.31Z" fill="#0BFF6E"/>
<path d="M401.05 242.29L398.74 243.63V248.93L401.05 247.59V242.29Z" fill="#0BFF6E"/>
<path d="M396.59 244.87L394.27 246.21V251.5L396.59 250.17V244.87Z" fill="#0BFF6E"/>
<path d="M392.12 247.45L389.81 248.78V254.08L392.12 252.74V247.45Z" fill="#0BFF6E"/>
<path d="M387.66 250.02L385.34 251.36V256.66L387.66 255.32V250.02Z" fill="#0BFF6E"/>
<path d="M401.05 253.01L398.74 254.35V259.64L401.05 258.31V253.01Z" fill="#0BFF6E"/>
<path d="M396.59 255.59L394.27 256.92V262.22L396.59 260.88V255.59Z" fill="#0BFF6E"/>
<path d="M392.12 258.16L389.81 259.5V264.8L392.12 263.46V258.16Z" fill="#0BFF6E"/>
<path d="M387.66 260.74L385.34 262.08V267.37L387.66 266.04V260.74Z" fill="#0BFF6E"/>
<path d="M401.05 263.73L398.74 265.06V270.36L401.05 269.02V263.73Z" fill="#0BFF6E"/>
<path d="M396.59 266.3L394.27 267.64V272.94L396.59 271.6V266.3Z" fill="#0BFF6E"/>
<path d="M392.12 268.88L389.81 270.22V275.51L392.12 274.18V268.88Z" fill="#0BFF6E"/>
<path d="M387.66 271.46L385.34 272.79V278.09L387.66 276.75V271.46Z" fill="#0BFF6E"/>
<path d="M255.55 70.82L255.13 219.33L249.12 215.86L249.54 67.35L255.55 70.82Z" fill="#084E82"/>
<path d="M329.35 75.4501L329.33 223.72L320.96 228.59L321.38 80.0801L329.35 75.4501Z" fill="#1571BC"/>
<path d="M302.58 97.97L302.16 246.48L296.15 243.01L296.57 94.5L302.58 97.97Z" fill="#084E82"/>
<path d="M327.39 83.55L326.97 232.06L302.16 246.48L302.58 97.97L327.39 83.55Z" fill="#0B56A0"/>
<path d="M288.6 99.1301L288.18 247.64L247.58 224.2L247.59 75.4501L288.6 99.1301Z" fill="#004772"/>
<path d="M296.57 94.5L296.15 243.01L288.18 247.64L288.6 99.13L296.57 94.5Z" fill="#0B56A0"/>
<path d="M329.35 75.45L321.38 80.08L327.39 83.55L302.58 97.97L296.57 94.5L288.6 99.13L247.59 75.45L255.55 70.82L249.54 67.35L274.36 52.93L280.37 56.4L288.33 51.77L329.35 75.45Z" fill="#1A88E2"/>
<path d="M318.15 75.45L312.36 78.81L316.73 81.33L298.71 91.8L294.35 89.28L288.56 92.64L258.79 75.45L264.57 72.09L260.21 69.57L278.22 59.1L282.59 61.62L288.37 58.26L318.15 75.45Z" fill="#1079C1"/>
<path d="M278.26 102.09L281.79 104.13V232.46L278.26 230.42V102.09Z" fill="#00FFFF"/>
<path d="M269.62 97.12L273.15 99.15V227.49L269.62 225.45V97.12Z" fill="#00FFFF"/>
<path d="M260.98 92.12L264.51 94.15V222.49L260.98 220.45V92.12Z" fill="#00FFFF"/>
<path d="M252.34 87.14L255.87 89.18V217.51L252.34 215.47V87.14Z" fill="#00FFFF"/>
<path d="M313.98 99.0699L310.45 101.11V229.44L313.98 227.4V99.0699Z" fill="#00FFFF"/>
<path d="M322.62 94.09L319.09 96.13V224.46L322.62 222.43V94.09Z" fill="#00FFFF"/>
<path d="M288.46 65.54C280.99 65.66 274.99 69.63 275.07 74.4C275.15 79.18 281.27 82.95 288.74 82.83C296.21 82.71 302.21 78.74 302.13 73.97C302.05 69.2 295.93 65.42 288.46 65.54Z" stroke="#00FFFF" strokeWidth="0.6218" stroke-miterlimit="10"/>
<path d="M300.84 289.34C307.06 289.24 312.05 285.94 311.98 281.97L311.97 250.87L289.46 251.37V282.34C289.53 286.3 294.62 289.44 300.84 289.34Z" fill="#03767C"/>
<path d="M300.61 243.98C294.39 244.08 289.4 247.38 289.47 251.35C289.53 255.32 294.63 258.46 300.84 258.36C307.06 258.26 312.05 254.96 311.98 250.99C311.92 247.02 306.83 243.88 300.61 243.98Z" fill="#049B9B"/>
<path d="M311.98 277.04V276.98C311.97 277 311.98 277.02 311.98 277.04Z" fill="#0BFF6E"/>
<path d="M311.98 277.29C311.9 281.18 306.97 284.39 300.84 284.49C294.62 284.59 289.53 281.45 289.47 277.48V280.14C289.53 284.11 294.63 287.25 300.84 287.15C307.06 287.05 312.05 283.75 311.98 279.78V277.29Z" fill="#0BFF6E"/>
<path d="M311.98 255.82V255.76C311.97 255.78 311.98 255.8 311.98 255.82Z" fill="#0BFF6E"/>
<path d="M311.98 256.07C311.9 259.96 306.97 263.17 300.84 263.27C294.62 263.37 289.53 260.23 289.47 256.26V258.92C289.53 262.89 294.63 266.03 300.84 265.93C307.06 265.83 312.05 262.53 311.98 258.56V256.07Z" fill="#0BFF6E"/>
<path d="M300.82 255.82C305.73 255.74 309.67 253.13 309.62 249.99L309.61 234.74L291.83 235.13V250.27C291.88 253.42 295.9 255.9 300.82 255.82Z" fill="#0BFF6E"/>
<path d="M300.63 229.31C295.72 229.39 291.78 232 291.83 235.14C291.88 238.28 295.9 240.76 300.81 240.68C305.72 240.6 309.66 237.99 309.61 234.85C309.57 231.71 305.54 229.23 300.63 229.31Z" fill="#049B9B"/>
<path d="M300.84 244.64C307.06 244.54 312.05 241.24 311.98 237.27L311.97 206.17L289.46 206.67V237.64C289.53 241.6 294.62 244.74 300.84 244.64Z" fill="#03767C"/>
<path d="M300.61 199.29C294.39 199.39 289.4 202.69 289.47 206.66C289.53 210.63 294.63 213.77 300.84 213.67C307.06 213.57 312.05 210.27 311.98 206.3C311.92 202.33 306.83 199.19 300.61 199.29Z" fill="#049B9B"/>
<path d="M311.98 232.35V232.29C311.97 232.31 311.98 232.33 311.98 232.35Z" fill="#0BFF6E"/>
<path d="M311.98 232.59C311.9 236.48 306.97 239.69 300.84 239.79C294.62 239.89 289.53 236.75 289.47 232.78V235.44C289.53 239.41 294.63 242.55 300.84 242.45C307.06 242.35 312.05 239.05 311.98 235.08V232.59Z" fill="#0BFF6E"/>
<path d="M311.98 211.13V211.07C311.97 211.09 311.98 211.11 311.98 211.13Z" fill="#0BFF6E"/>
<path d="M311.98 211.38C311.9 215.27 306.97 218.48 300.84 218.58C294.62 218.68 289.53 215.54 289.47 211.57V214.23C289.53 218.2 294.63 221.34 300.84 221.24C307.06 221.14 312.05 217.84 311.98 213.87V211.38Z" fill="#0BFF6E"/>
<path d="M300.82 211.12C305.73 211.04 309.67 208.43 309.62 205.29L309.61 190.04L291.83 190.43V205.57C291.88 208.72 295.9 211.2 300.82 211.12Z" fill="#0BFF6E"/>
<path d="M300.63 184.62C295.72 184.7 291.78 187.31 291.83 190.45C291.88 193.59 295.9 196.07 300.81 195.99C305.72 195.91 309.66 193.3 309.61 190.16C309.57 187.02 305.54 184.54 300.63 184.62Z" fill="#049B9B"/>
<path d="M300.84 199.95C307.06 199.85 312.05 196.55 311.98 192.58L311.97 161.48L289.46 161.98V192.95C289.53 196.9 294.62 200.05 300.84 199.95Z" fill="#03767C"/>
<path d="M300.61 154.59C294.39 154.69 289.4 157.99 289.47 161.96C289.53 165.93 294.63 169.07 300.84 168.97C307.06 168.87 312.05 165.57 311.98 161.6C311.92 157.63 306.83 154.49 300.61 154.59Z" fill="#049B9B"/>
<path d="M311.98 187.65V187.59C311.97 187.61 311.98 187.63 311.98 187.65Z" fill="#0BFF6E"/>
<path d="M311.98 187.9C311.9 191.79 306.97 195 300.84 195.1C294.62 195.2 289.53 192.06 289.47 188.09V190.75C289.53 194.72 294.63 197.86 300.84 197.76C307.06 197.66 312.05 194.36 311.98 190.39V187.9Z" fill="#0BFF6E"/>
<path d="M311.98 166.43V166.37C311.97 166.39 311.98 166.41 311.98 166.43Z" fill="#0BFF6E"/>
<path d="M311.98 166.68C311.9 170.57 306.97 173.78 300.84 173.88C294.62 173.98 289.53 170.84 289.47 166.87V169.53C289.53 173.5 294.63 176.64 300.84 176.54C307.06 176.44 312.05 173.14 311.98 169.17V166.68Z" fill="#0BFF6E"/>
<path d="M300.82 166.43C305.73 166.35 309.67 163.74 309.62 160.6L309.61 145.35L291.83 145.74V160.88C291.88 164.02 295.9 166.5 300.82 166.43Z" fill="#0BFF6E"/>
<path d="M300.63 139.92C295.72 140 291.78 142.61 291.83 145.75C291.88 148.89 295.9 151.37 300.81 151.29C305.72 151.21 309.66 148.6 309.61 145.46C309.57 142.32 305.54 139.84 300.63 139.92Z" fill="#049B9B"/>
<path d="M300.84 155.25C307.06 155.15 312.05 151.85 311.98 147.88L311.97 116.78L289.46 117.28V148.25C289.53 152.21 294.62 155.35 300.84 155.25Z" fill="#03767C"/>
<path d="M300.61 109.89C294.39 109.99 289.4 113.29 289.47 117.26C289.53 121.23 294.63 124.37 300.84 124.27C307.06 124.17 312.05 120.87 311.98 116.9C311.92 112.93 306.83 109.79 300.61 109.89Z" fill="#049B9B"/>
<path d="M311.98 142.95V142.89C311.97 142.91 311.98 142.93 311.98 142.95Z" fill="#0BFF6E"/>
<path d="M311.98 143.2C311.9 147.09 306.97 150.3 300.84 150.4C294.62 150.5 289.53 147.36 289.47 143.39V146.05C289.53 150.02 294.63 153.16 300.84 153.06C307.06 152.96 312.05 149.66 311.98 145.69V143.2Z" fill="#0BFF6E"/>
<path d="M311.98 121.73V121.67C311.97 121.69 311.98 121.71 311.98 121.73Z" fill="#0BFF6E"/>
<path d="M311.98 121.98C311.9 125.87 306.97 129.08 300.84 129.18C294.62 129.28 289.53 126.14 289.47 122.17V124.83C289.53 128.8 294.63 131.94 300.84 131.84C307.06 131.74 312.05 128.44 311.98 124.47V121.98Z" fill="#0BFF6E"/>
<path d="M188.73 254.04L133.66 237.28V247.99C133.65 251.49 135.37 255 138.84 257.01L165.74 272.54C174.78 277.76 185.91 277.76 194.95 272.54C198.04 270.75 199.59 267.63 199.59 264.5V254.04H188.73Z" fill="#0B56A0"/>
<path d="M138.84 228.19C146.87 223.55 156.76 223.55 164.79 228.19L194.94 245.6C201.13 249.17 201.13 258.11 194.94 261.68C185.9 266.9 174.77 266.9 165.73 261.68L138.83 246.15C131.92 242.15 131.92 232.18 138.84 228.19Z" fill="#1A88E2"/>
<path d="M185.07 170.16L139.11 156.17V236.5C139.1 239.42 140.54 242.35 143.43 244.03L165.88 257C173.42 261.35 182.71 261.35 190.26 257C192.84 255.51 194.13 252.9 194.13 250.29V170.17H185.07V170.16Z" fill="#0B56A0"/>
<path d="M143.43 148.59C150.13 144.72 158.39 144.72 165.09 148.59L190.26 163.12C195.43 166.1 195.43 173.56 190.26 176.54C182.72 180.89 173.43 180.89 165.88 176.54L143.43 163.58C137.66 160.25 137.66 151.92 143.43 148.59Z" fill="#1A88E2"/>
<path d="M147.84 151.28C153.27 148.15 159.95 148.15 165.38 151.28L185.76 163.04C189.94 165.45 189.94 171.49 185.76 173.91C179.65 177.44 172.13 177.44 166.02 173.91L147.84 163.41C143.17 160.72 143.17 153.98 147.84 151.28Z" fill="#0473BF"/>
<path d="M147.84 154.41C153.27 151.28 159.95 151.28 165.38 154.41L185.76 166.17C187.33 167.08 188.31 168.49 188.7 170.04C189.35 167.47 188.37 164.55 185.76 163.04L165.38 151.28C159.95 148.15 153.27 148.15 147.84 151.28C144.98 152.93 143.88 156.09 144.52 158.91C144.93 157.12 146.03 155.46 147.84 154.41Z" fill="#006299"/>
<path d="M190.26 249.03C182.72 253.38 173.43 253.38 165.88 249.03L143.43 236.07C140.58 234.42 139.15 231.55 139.12 228.67H139.11V230.53C139.1 233.45 140.54 236.38 143.43 238.06L165.88 251.02C173.42 255.37 182.71 255.37 190.26 251.02C192.84 249.53 194.13 246.92 194.13 244.31V242.66H194.09C193.98 245.15 192.73 247.6 190.26 249.03Z" fill="#00FFFF"/>
<path d="M190.26 243.44C182.72 247.79 173.43 247.79 165.88 243.44L143.43 230.48C140.58 228.83 139.15 225.96 139.12 223.08H139.11V224.94C139.1 227.86 140.54 230.79 143.43 232.47L165.88 245.43C173.42 249.78 182.71 249.78 190.26 245.43C192.84 243.94 194.13 241.33 194.13 238.72V237.07H194.09C193.98 239.56 192.73 242.02 190.26 243.44Z" fill="#00FFFF"/>
<path d="M190.26 237.86C182.72 242.21 173.43 242.21 165.88 237.86L143.43 224.9C140.58 223.25 139.15 220.38 139.12 217.5H139.11V219.36C139.1 222.28 140.54 225.21 143.43 226.89L165.88 239.85C173.42 244.2 182.71 244.2 190.26 239.85C192.84 238.36 194.13 235.75 194.13 233.14V231.49H194.09C193.98 233.97 192.73 236.43 190.26 237.86Z" fill="#00FFFF"/>
<path d="M190.26 232.27C182.72 236.62 173.43 236.62 165.88 232.27L143.43 219.31C140.58 217.66 139.15 214.79 139.12 211.91H139.11V213.77C139.1 216.69 140.54 219.62 143.43 221.3L165.88 234.26C173.42 238.61 182.71 238.61 190.26 234.26C192.84 232.77 194.13 230.16 194.13 227.55V225.9H194.09C193.98 228.39 192.73 230.84 190.26 232.27Z" fill="#00FFFF"/>
<path d="M190.26 226.68C182.72 231.03 173.43 231.03 165.88 226.68L143.43 213.72C140.58 212.07 139.15 209.2 139.12 206.32H139.11V208.18C139.1 211.1 140.54 214.03 143.43 215.71L165.88 228.67C173.42 233.02 182.71 233.02 190.26 228.67C192.84 227.18 194.13 224.57 194.13 221.96V220.31H194.09C193.98 222.8 192.73 225.25 190.26 226.68Z" fill="#00FFFF"/>
<path d="M190.26 221.09C182.72 225.44 173.43 225.44 165.88 221.09L143.43 208.13C140.58 206.48 139.15 203.61 139.12 200.73H139.11V202.59C139.1 205.51 140.54 208.44 143.43 210.12L165.88 223.08C173.42 227.43 182.71 227.43 190.26 223.08C192.84 221.59 194.13 218.98 194.13 216.37V214.72H194.09C193.98 217.21 192.73 219.67 190.26 221.09Z" fill="#00FFFF"/>
<path d="M190.26 215.51C182.72 219.86 173.43 219.86 165.88 215.51L143.43 202.55C140.58 200.9 139.15 198.03 139.12 195.15H139.11V197C139.1 199.92 140.54 202.85 143.43 204.53L165.88 217.49C173.42 221.84 182.71 221.84 190.26 217.49C192.84 216 194.13 213.39 194.13 210.78V209.13H194.09C193.98 211.63 192.73 214.08 190.26 215.51Z" fill="#00FFFF"/>
<path d="M190.26 209.92C182.72 214.27 173.43 214.27 165.88 209.92L143.43 196.96C140.58 195.31 139.15 192.44 139.12 189.56H139.11V191.42C139.1 194.34 140.54 197.27 143.43 198.95L165.88 211.91C173.42 216.26 182.71 216.26 190.26 211.91C192.84 210.42 194.13 207.81 194.13 205.2V203.55H194.09C193.98 206.04 192.73 208.49 190.26 209.92Z" fill="#00FFFF"/>
<path d="M190.26 204.33C182.72 208.68 173.43 208.68 165.88 204.33L143.43 191.37C140.58 189.72 139.15 186.85 139.12 183.97H139.11V185.83C139.1 188.75 140.54 191.68 143.43 193.36L165.88 206.32C173.42 210.67 182.71 210.67 190.26 206.32C192.84 204.83 194.13 202.22 194.13 199.61V197.96H194.09C193.98 200.45 192.73 202.9 190.26 204.33Z" fill="#00FFFF"/>
<path d="M190.26 198.74C182.72 203.09 173.43 203.09 165.88 198.74L143.43 185.78C140.58 184.13 139.15 181.26 139.12 178.38H139.11V180.24C139.1 183.16 140.54 186.09 143.43 187.77L165.88 200.73C173.42 205.08 182.71 205.08 190.26 200.73C192.84 199.24 194.13 196.63 194.13 194.02V192.37H194.09C193.98 194.86 192.73 197.32 190.26 198.74Z" fill="#00FFFF"/>
<path d="M190.26 193.16C182.72 197.51 173.43 197.51 165.88 193.16L143.43 180.2C140.58 178.55 139.15 175.68 139.12 172.8H139.11V174.66C139.1 177.58 140.54 180.51 143.43 182.19L165.88 195.15C173.42 199.5 182.71 199.5 190.26 195.15C192.84 193.66 194.13 191.05 194.13 188.44V186.79H194.09C193.98 189.28 192.73 191.73 190.26 193.16Z" fill="#00FFFF"/>
<path d="M190.26 187.57C182.72 191.92 173.43 191.92 165.88 187.57L143.43 174.61C140.58 172.96 139.15 170.09 139.12 167.21H139.11V169.07C139.1 171.99 140.54 174.92 143.43 176.6L165.88 189.56C173.42 193.91 182.71 193.91 190.26 189.56C192.84 188.07 194.13 185.46 194.13 182.85V181.2H194.09C193.98 183.69 192.73 186.14 190.26 187.57Z" fill="#00FFFF"/>
<path d="M190.26 181.98C182.72 186.33 173.43 186.33 165.88 181.98L143.43 169.02C140.58 167.37 139.15 164.5 139.12 161.62H139.11V163.48C139.1 166.4 140.54 169.33 143.43 171.01L165.88 183.97C173.42 188.32 182.71 188.32 190.26 183.97C192.84 182.48 194.13 179.87 194.13 177.26V175.61H194.09C193.98 178.1 192.73 180.56 190.26 181.98Z" fill="#00FFFF"/>
<path d="M209.1 261.61L227.34 251.08L262.8 271.57L244.56 282.1L209.1 261.61Z" fill="#1A88E2"/>
<path d="M209.1 261.61V287.16L244.56 307.65V282.1L209.1 261.61Z" fill="#084E82"/>
<path d="M262.8 271.57V297.12L244.56 307.65V282.1L262.8 271.57Z" fill="#0B56A0"/>
<path d="M212.26 268.48L214.85 269.98V272.33L212.26 270.84V268.48Z" fill="#00FFFF"/>
<path d="M217.26 271.37L219.85 272.87V275.22L217.26 273.72V271.37Z" fill="#00FFFF"/>
<path d="M222.26 274.25L224.85 275.75V278.1L222.26 276.61V274.25Z" fill="#00FFFF"/>
<path d="M227.26 277.14L229.85 278.64V280.99L227.26 279.49V277.14Z" fill="#00FFFF"/>
<path d="M232.66 280.28L235.25 281.77V284.13L232.66 282.63V280.28Z" fill="#00FFFF"/>
<path d="M237.66 283.16L240.25 284.66V287.01L237.66 285.51V283.16Z" fill="#00FFFF"/>
<path d="M212.26 274.6L214.85 276.1V278.45L212.26 276.95V274.6Z" fill="#00FFFF"/>
<path d="M217.26 277.48L219.85 278.98V281.33L217.26 279.84V277.48Z" fill="#00FFFF"/>
<path d="M222.26 280.37L224.85 281.87V284.22L222.26 282.72V280.37Z" fill="#00FFFF"/>
<path d="M227.26 283.25L229.85 284.75V287.1L227.26 285.61V283.25Z" fill="#00FFFF"/>
<path d="M232.66 286.39L235.25 287.89V290.24L232.66 288.74V286.39Z" fill="#00FFFF"/>
<path d="M237.66 289.28L240.25 290.77V293.13L237.66 291.63V289.28Z" fill="#00FFFF"/>
<path d="M212.26 280.71L214.85 282.21V284.56L212.26 283.07V280.71Z" fill="#00FFFF"/>
<path d="M217.26 283.6L219.85 285.09V287.45L217.26 285.95V283.6Z" fill="#00FFFF"/>
<path d="M222.26 286.48L224.85 287.98V290.33L222.26 288.84V286.48Z" fill="#00FFFF"/>
<path d="M227.26 289.37L229.85 290.86V293.22L227.26 291.72V289.37Z" fill="#00FFFF"/>
<path d="M232.66 292.51L235.25 294V296.36L232.66 294.86V292.51Z" fill="#00FFFF"/>
<path d="M237.66 295.39L240.25 296.89V299.24L237.66 297.74V295.39Z" fill="#00FFFF"/>
<path d="M261.04 277.68L258.45 279.18V281.53L261.04 280.04V277.68Z" fill="#00FFFF"/>
<path d="M255.64 280.82L253.05 282.32V284.67L255.64 283.18V280.82Z" fill="#00FFFF"/>
<path d="M250.64 283.71L248.05 285.2V287.56L250.64 286.06V283.71Z" fill="#00FFFF"/>
<path d="M261.04 283.8L258.45 285.3V287.65L261.04 286.15V283.8Z" fill="#00FFFF"/>
<path d="M255.64 286.94L253.05 288.43V290.79L255.64 289.29V286.94Z" fill="#00FFFF"/>
<path d="M250.64 289.82L248.05 291.32V293.67L250.64 292.17V289.82Z" fill="#00FFFF"/>
<path d="M261.04 289.91L258.45 291.41V293.76L261.04 292.27V289.91Z" fill="#00FFFF"/>
<path d="M255.64 293.05L253.05 294.55V296.9L255.64 295.4V293.05Z" fill="#00FFFF"/>
<path d="M250.64 295.94L248.05 297.43V299.79L250.64 298.29V295.94Z" fill="#00FFFF"/>
<path d="M211.3 258.7L228.04 249.04L260.6 267.85L243.86 277.52L211.3 258.7Z" fill="#00FFFF"/>
<path d="M211.3 258.7V261.59L243.86 280.41V277.52L211.3 258.7Z" fill="#07AAA2"/>
<path d="M260.6 267.85V270.74L243.86 280.41V277.52L260.6 267.85Z" fill="#0FCEC8"/>
<path d="M209.1 232.3L227.34 221.77L262.8 242.27L244.56 252.8L209.1 232.3Z" fill="#1A88E2"/>
<path d="M209.1 232.3V257.85L244.56 278.34V252.8L209.1 232.3Z" fill="#084E82"/>
<path d="M262.8 242.27V267.81L244.56 278.34V252.8L262.8 242.27Z" fill="#0B56A0"/>
<path d="M212.26 239.18L214.85 240.67V243.03L212.26 241.53V239.18Z" fill="#00FFFF"/>
<path d="M217.26 242.06L219.85 243.56V245.91L217.26 244.41V242.06Z" fill="#00FFFF"/>
<path d="M222.26 244.95L224.85 246.44V248.8L222.26 247.3V244.95Z" fill="#00FFFF"/>
<path d="M227.26 247.83L229.85 249.33V251.68L227.26 250.18V247.83Z" fill="#00FFFF"/>
<path d="M232.66 250.97L235.25 252.47V254.82L232.66 253.32V250.97Z" fill="#00FFFF"/>
<path d="M237.66 253.85L240.25 255.35V257.7L237.66 256.21V253.85Z" fill="#00FFFF"/>
<path d="M212.26 245.29L214.85 246.79V249.14L212.26 247.64V245.29Z" fill="#00FFFF"/>
<path d="M217.26 248.18L219.85 249.67V252.03L217.26 250.53V248.18Z" fill="#00FFFF"/>
<path d="M222.26 251.06L224.85 252.56V254.91L222.26 253.41V251.06Z" fill="#00FFFF"/>
<path d="M227.26 253.95L229.85 255.44V257.8L227.26 256.3V253.95Z" fill="#00FFFF"/>
<path d="M232.66 257.08L235.25 258.58V260.93L232.66 259.44V257.08Z" fill="#00FFFF"/>
<path d="M237.66 259.97L240.25 261.47V263.82L237.66 262.32V259.97Z" fill="#00FFFF"/>
<path d="M212.26 251.41L214.85 252.9V255.26L212.26 253.76V251.41Z" fill="#00FFFF"/>
<path d="M217.26 254.29L219.85 255.79V258.14L217.26 256.64V254.29Z" fill="#00FFFF"/>
<path d="M222.26 257.18L224.85 258.67V261.03L222.26 259.53V257.18Z" fill="#00FFFF"/>
<path d="M227.26 260.06L229.85 261.56V263.91L227.26 262.41V260.06Z" fill="#00FFFF"/>
<path d="M232.66 263.2L235.25 264.7V267.05L232.66 265.55V263.2Z" fill="#00FFFF"/>
<path d="M237.66 266.08L240.25 267.58V269.93L237.66 268.44V266.08Z" fill="#00FFFF"/>
<path d="M261.04 248.38L258.45 249.87V252.23L261.04 250.73V248.38Z" fill="#00FFFF"/>
<path d="M255.64 251.52L253.05 253.01V255.36L255.64 253.87V251.52Z" fill="#00FFFF"/>
<path d="M250.64 254.4L248.05 255.9V258.25L250.64 256.75V254.4Z" fill="#00FFFF"/>
<path d="M261.04 254.49L258.45 255.99V258.34L261.04 256.85V254.49Z" fill="#00FFFF"/>
<path d="M255.64 257.63L253.05 259.13V261.48L255.64 259.98V257.63Z" fill="#00FFFF"/>
<path d="M250.64 260.51L248.05 262.01V264.36L250.64 262.87V260.51Z" fill="#00FFFF"/>
<path d="M261.04 260.61L258.45 262.1V264.46L261.04 262.96V260.61Z" fill="#00FFFF"/>
<path d="M255.64 263.74L253.05 265.24V267.59L255.64 266.1V263.74Z" fill="#00FFFF"/>
<path d="M250.64 266.63L248.05 268.13V270.48L250.64 268.98V266.63Z" fill="#00FFFF"/>
<path d="M211.3 229.4L228.04 219.73L260.6 238.54L243.86 248.21L211.3 229.4Z" fill="#00FFFF"/>
<path d="M211.3 229.4V232.28L243.86 251.1V248.21L211.3 229.4Z" fill="#07AAA2"/>
<path d="M260.6 238.54V241.43L243.86 251.1V248.21L260.6 238.54Z" fill="#0FCEC8"/>
<path d="M209.1 203L227.34 192.47L262.8 212.96L244.56 223.49L209.1 203Z" fill="#1A88E2"/>
<path d="M209.1 203V228.54L244.56 249.04V223.49L209.1 203Z" fill="#084E82"/>
<path d="M262.8 212.96V238.51L244.56 249.04V223.49L262.8 212.96Z" fill="#0B56A0"/>
<path d="M212.26 209.87L214.85 211.37V213.72L212.26 212.22V209.87Z" fill="#00FFFF"/>
<path d="M217.26 212.75L219.85 214.25V216.6L217.26 215.11V212.75Z" fill="#00FFFF"/>
<path d="M222.26 215.64L224.85 217.14V219.49L222.26 217.99V215.64Z" fill="#00FFFF"/>
<path d="M227.26 218.52L229.85 220.02V222.37L227.26 220.88V218.52Z" fill="#00FFFF"/>
<path d="M232.66 221.66L235.25 223.16V225.51L232.66 224.02V221.66Z" fill="#00FFFF"/>
<path d="M237.66 224.55L240.25 226.04V228.4L237.66 226.9V224.55Z" fill="#00FFFF"/>
<path d="M212.26 215.98L214.85 217.48V219.83L212.26 218.34V215.98Z" fill="#00FFFF"/>
<path d="M217.26 218.87L219.85 220.37V222.72L217.26 221.22V218.87Z" fill="#00FFFF"/>
<path d="M222.26 221.75L224.85 223.25V225.6L222.26 224.11V221.75Z" fill="#00FFFF"/>
<path d="M227.26 224.64L229.85 226.14V228.49L227.26 226.99V224.64Z" fill="#00FFFF"/>
<path d="M232.66 227.78L235.25 229.27V231.63L232.66 230.13V227.78Z" fill="#00FFFF"/>
<path d="M237.66 230.66L240.25 232.16V234.51L237.66 233.02V230.66Z" fill="#00FFFF"/>
<path d="M212.26 222.1L214.85 223.6V225.95L212.26 224.45V222.1Z" fill="#00FFFF"/>
<path d="M217.26 224.98L219.85 226.48V228.83L217.26 227.34V224.98Z" fill="#00FFFF"/>
<path d="M222.26 227.87L224.85 229.37V231.72L222.26 230.22V227.87Z" fill="#00FFFF"/>
<path d="M227.26 230.75L229.85 232.25V234.6L227.26 233.11V230.75Z" fill="#00FFFF"/>
<path d="M232.66 233.89L235.25 235.39V237.74L232.66 236.24V233.89Z" fill="#00FFFF"/>
<path d="M237.66 236.78L240.25 238.27V240.63L237.66 239.13V236.78Z" fill="#00FFFF"/>
<path d="M261.04 219.07L258.45 220.57V222.92L261.04 221.42V219.07Z" fill="#00FFFF"/>
<path d="M255.64 222.21L253.05 223.7V226.06L255.64 224.56V222.21Z" fill="#00FFFF"/>
<path d="M250.64 225.09L248.05 226.59V228.94L250.64 227.45V225.09Z" fill="#00FFFF"/>
<path d="M261.04 225.18L258.45 226.68V229.03L261.04 227.54V225.18Z" fill="#00FFFF"/>
<path d="M255.64 228.32L253.05 229.82V232.17L255.64 230.68V228.32Z" fill="#00FFFF"/>
<path d="M250.64 231.21L248.05 232.7V235.06L250.64 233.56V231.21Z" fill="#00FFFF"/>
<path d="M261.04 231.3L258.45 232.8V235.15L261.04 233.65V231.3Z" fill="#00FFFF"/>
<path d="M255.64 234.44L253.05 235.93V238.29L255.64 236.79V234.44Z" fill="#00FFFF"/>
<path d="M250.64 237.32L248.05 238.82V241.17L250.64 239.68V237.32Z" fill="#00FFFF"/>
<path d="M211.3 200.09L228.04 190.42L260.6 209.24L243.86 218.9L211.3 200.09Z" fill="#00FFFF"/>
<path d="M211.3 200.09V202.98L243.86 221.79V218.9L211.3 200.09Z" fill="#07AAA2"/>
<path d="M260.6 209.24V212.13L243.86 221.79V218.9L260.6 209.24Z" fill="#0FCEC8"/>
<path d="M209.1 173.69L227.34 163.16L262.8 183.65L244.56 194.18L209.1 173.69Z" fill="#1A88E2"/>
<path d="M209.1 173.69V199.23L244.56 219.73V194.18L209.1 173.69Z" fill="#084E82"/>
<path d="M262.8 183.65V209.2L244.56 219.73V194.18L262.8 183.65Z" fill="#0B56A0"/>
<path d="M212.26 180.56L214.85 182.06V184.41L212.26 182.92V180.56Z" fill="#00FFFF"/>
<path d="M217.26 183.45L219.85 184.94V187.3L217.26 185.8V183.45Z" fill="#00FFFF"/>
<path d="M222.26 186.33L224.85 187.83V190.18L222.26 188.69V186.33Z" fill="#00FFFF"/>
<path d="M227.26 189.22L229.85 190.71V193.07L227.26 191.57V189.22Z" fill="#00FFFF"/>
<path d="M232.66 192.36L235.25 193.85V196.2L232.66 194.71V192.36Z" fill="#00FFFF"/>
<path d="M237.66 195.24L240.25 196.74V199.09L237.66 197.59V195.24Z" fill="#00FFFF"/>
<path d="M212.26 186.68L214.85 188.17V190.53L212.26 189.03V186.68Z" fill="#00FFFF"/>
<path d="M217.26 189.56L219.85 191.06V193.41L217.26 191.91V189.56Z" fill="#00FFFF"/>
<path d="M222.26 192.45L224.85 193.94V196.3L222.26 194.8V192.45Z" fill="#00FFFF"/>
<path d="M227.26 195.33L229.85 196.83V199.18L227.26 197.68V195.33Z" fill="#00FFFF"/>
<path d="M232.66 198.47L235.25 199.97V202.32L232.66 200.82V198.47Z" fill="#00FFFF"/>
<path d="M237.66 201.35L240.25 202.85V205.2L237.66 203.71V201.35Z" fill="#00FFFF"/>
<path d="M212.26 192.79L214.85 194.29V196.64L212.26 195.14V192.79Z" fill="#00FFFF"/>
<path d="M217.26 195.68L219.85 197.17V199.53L217.26 198.03V195.68Z" fill="#00FFFF"/>
<path d="M222.26 198.56L224.85 200.06V202.41L222.26 200.91V198.56Z" fill="#00FFFF"/>
<path d="M227.26 201.45L229.85 202.94V205.3L227.26 203.8V201.45Z" fill="#00FFFF"/>
<path d="M232.66 204.58L235.25 206.08V208.43L232.66 206.94V204.58Z" fill="#00FFFF"/>
<path d="M237.66 207.47L240.25 208.97V211.32L237.66 209.82V207.47Z" fill="#00FFFF"/>
<path d="M261.04 189.76L258.45 191.26V193.61L261.04 192.12V189.76Z" fill="#00FFFF"/>
<path d="M255.64 192.9L253.05 194.4V196.75L255.64 195.25V192.9Z" fill="#00FFFF"/>
<path d="M250.64 195.79L248.05 197.28V199.64L250.64 198.14V195.79Z" fill="#00FFFF"/>
<path d="M261.04 195.88L258.45 197.37V199.73L261.04 198.23V195.88Z" fill="#00FFFF"/>
<path d="M255.64 199.02L253.05 200.51V202.87L255.64 201.37V199.02Z" fill="#00FFFF"/>
<path d="M250.64 201.9L248.05 203.4V205.75L250.64 204.25V201.9Z" fill="#00FFFF"/>
<path d="M261.04 201.99L258.45 203.49V205.84L261.04 204.35V201.99Z" fill="#00FFFF"/>
<path d="M255.64 205.13L253.05 206.63V208.98L255.64 207.48V205.13Z" fill="#00FFFF"/>
<path d="M250.64 208.02L248.05 209.51V211.86L250.64 210.37V208.02Z" fill="#00FFFF"/>
<path d="M211.3 170.78L228.04 161.11L260.6 179.93L243.86 189.6L211.3 170.78Z" fill="#00FFFF"/>
<path d="M211.3 170.78V173.67L243.86 192.49V189.6L211.3 170.78Z" fill="#07AAA2"/>
<path d="M260.6 179.93V182.82L243.86 192.49V189.6L260.6 179.93Z" fill="#0FCEC8"/>
<path d="M209.1 144.38L227.34 133.85L262.8 154.35L244.56 164.87L209.1 144.38Z" fill="#1A88E2"/>
<path d="M209.1 144.38V169.93L244.56 190.42V164.87L209.1 144.38Z" fill="#084E82"/>
<path d="M262.8 154.35V179.89L244.56 190.42V164.87L262.8 154.35Z" fill="#0B56A0"/>
<path d="M212.26 151.26L214.85 152.75V155.1L212.26 153.61V151.26Z" fill="#00FFFF"/>
<path d="M217.26 154.14L219.85 155.64V157.99L217.26 156.49V154.14Z" fill="#00FFFF"/>
<path d="M222.26 157.03L224.85 158.52V160.87L222.26 159.38V157.03Z" fill="#00FFFF"/>
<path d="M227.26 159.91L229.85 161.41V163.76L227.26 162.26V159.91Z" fill="#00FFFF"/>
<path d="M232.66 163.05L235.25 164.54V166.9L232.66 165.4V163.05Z" fill="#00FFFF"/>
<path d="M237.66 165.93L240.25 167.43V169.78L237.66 168.29V165.93Z" fill="#00FFFF"/>
<path d="M212.26 157.37L214.85 158.87V161.22L212.26 159.72V157.37Z" fill="#00FFFF"/>
<path d="M217.26 160.25L219.85 161.75V164.1L217.26 162.61V160.25Z" fill="#00FFFF"/>
<path d="M222.26 163.14L224.85 164.64V166.99L222.26 165.49V163.14Z" fill="#00FFFF"/>
<path d="M227.26 166.02L229.85 167.52V169.87L227.26 168.38V166.02Z" fill="#00FFFF"/>
<path d="M232.66 169.16L235.25 170.66V173.01L232.66 171.52V169.16Z" fill="#00FFFF"/>
<path d="M237.66 172.05L240.25 173.54V175.9L237.66 174.4V172.05Z" fill="#00FFFF"/>
<path d="M212.26 163.48L214.85 164.98V167.33L212.26 165.84V163.48Z" fill="#00FFFF"/>
<path d="M217.26 166.37L219.85 167.87V170.22L217.26 168.72V166.37Z" fill="#00FFFF"/>
<path d="M222.26 169.25L224.85 170.75V173.1L222.26 171.61V169.25Z" fill="#00FFFF"/>
<path d="M227.26 172.14L229.85 173.64V175.99L227.26 174.49V172.14Z" fill="#00FFFF"/>
<path d="M232.66 175.28L235.25 176.77V179.13L232.66 177.63V175.28Z" fill="#00FFFF"/>
<path d="M237.66 178.16L240.25 179.66V182.01L237.66 180.52V178.16Z" fill="#00FFFF"/>
<path d="M261.04 160.46L258.45 161.95V164.31L261.04 162.81V160.46Z" fill="#00FFFF"/>
<path d="M255.64 163.59L253.05 165.09V167.44L255.64 165.95V163.59Z" fill="#00FFFF"/>
<path d="M250.64 166.48L248.05 167.98V170.33L250.64 168.83V166.48Z" fill="#00FFFF"/>
<path d="M261.04 166.57L258.45 168.07V170.42L261.04 168.92V166.57Z" fill="#00FFFF"/>
<path d="M255.64 169.71L253.05 171.2V173.56L255.64 172.06V169.71Z" fill="#00FFFF"/>
<path d="M250.64 172.59L248.05 174.09V176.44L250.64 174.95V172.59Z" fill="#00FFFF"/>
<path d="M261.04 172.68L258.45 174.18V176.53L261.04 175.04V172.68Z" fill="#00FFFF"/>
<path d="M255.64 175.82L253.05 177.32V179.67L255.64 178.18V175.82Z" fill="#00FFFF"/>
<path d="M250.64 178.71L248.05 180.2V182.56L250.64 181.06V178.71Z" fill="#00FFFF"/>
<path d="M211.3 141.47L228.04 131.81L260.6 150.62L243.86 160.29L211.3 141.47Z" fill="#00FFFF"/>
<path d="M211.3 141.47V144.36L243.86 163.18V160.29L211.3 141.47Z" fill="#07AAA2"/>
<path d="M260.6 150.62V153.51L243.86 163.18V160.29L260.6 150.62Z" fill="#0FCEC8"/>
<path d="M345.37 323.2C354.61 323.05 362.02 318.15 361.92 312.25L361.91 172.46L328.47 173.2V312.79C328.57 318.68 336.13 323.34 345.37 323.2Z" fill="#0B56A0"/>
<path d="M345.377 183.622C354.616 183.474 362.029 178.569 361.934 172.665C361.84 166.762 354.274 162.096 345.035 162.244C335.796 162.392 328.383 167.297 328.477 173.201C328.572 179.104 336.138 183.77 345.377 183.622Z" fill="#1A88E2"/>
<path d="M345.35 179.66C353.48 179.53 360 175.21 359.92 170.02L359.91 157.43L330.47 158.08V170.49C330.56 175.68 337.22 179.79 345.35 179.66Z" fill="#0B56A0"/>
<path d="M345.04 148.44C336.91 148.57 330.39 152.89 330.47 158.08C330.55 163.27 337.21 167.38 345.34 167.25C353.47 167.12 359.99 162.8 359.91 157.61C359.83 152.41 353.17 148.31 345.04 148.44Z" fill="#1A88E2"/>
<path d="M345.07 149.93C338.23 150.04 332.75 153.67 332.82 158.04C332.89 162.41 338.49 165.86 345.32 165.75C352.16 165.64 357.64 162.01 357.57 157.64C357.5 153.28 351.9 149.82 345.07 149.93Z" fill="#0064A8"/>
<path d="M345.07 151.9C351.42 151.8 356.69 154.77 357.47 158.69C357.54 158.34 357.58 157.99 357.57 157.64C357.5 153.27 351.9 149.82 345.07 149.93C338.23 150.04 332.75 153.67 332.82 158.04C332.83 158.35 332.87 158.66 332.92 158.96C333.67 155.08 338.79 152 345.07 151.9Z" fill="#004972"/>
<path d="M361.91 300.92V300.79H361.9C361.9 300.83 361.91 300.87 361.91 300.92Z" fill="#00FFFF"/>
<path d="M361.91 301.08C361.92 306.94 354.55 311.79 345.36 311.94C336.12 312.09 328.56 307.42 328.46 301.52V303.94C328.55 309.84 336.12 314.51 345.35 314.36C354.59 314.21 362 309.31 361.9 303.41L361.91 301.08Z" fill="#00FFFF"/>
<path d="M361.91 296.72V296.59H361.9C361.9 296.63 361.91 296.67 361.91 296.72Z" fill="#00FFFF"/>
<path d="M361.91 296.88C361.92 302.74 354.55 307.59 345.36 307.74C336.12 307.89 328.56 303.22 328.46 297.32V297.92C328.55 303.82 336.12 308.49 345.35 308.34C354.59 308.19 362 303.29 361.9 297.39L361.91 296.88Z" fill="#00FFFF"/>
<path d="M361.91 290.14V290.01H361.9C361.9 290.05 361.91 290.1 361.91 290.14Z" fill="#00FFFF"/>
<path d="M361.91 290.31C361.92 296.17 354.55 301.02 345.36 301.17C336.12 301.32 328.56 296.65 328.46 290.75V293.17C328.55 299.07 336.12 303.74 345.35 303.59C354.59 303.44 362 298.54 361.9 292.64L361.91 290.31Z" fill="#00FFFF"/>
<path d="M361.91 285.95V285.82H361.9C361.9 285.86 361.91 285.9 361.91 285.95Z" fill="#00FFFF"/>
<path d="M361.91 286.11C361.92 291.97 354.55 296.82 345.36 296.97C336.12 297.12 328.56 292.45 328.46 286.55V287.15C328.55 293.05 336.12 297.72 345.35 297.57C354.59 297.42 362 292.52 361.9 286.62L361.91 286.11Z" fill="#00FFFF"/>
<path d="M361.91 279.37V279.24H361.9C361.9 279.28 361.91 279.32 361.91 279.37Z" fill="#00FFFF"/>
<path d="M361.91 279.53C361.92 285.39 354.55 290.24 345.36 290.39C336.12 290.54 328.56 285.87 328.46 279.97V282.39C328.55 288.29 336.12 292.96 345.35 292.81C354.59 292.66 362 287.76 361.9 281.86L361.91 279.53Z" fill="#00FFFF"/>
<path d="M361.91 275.17V275.04H361.9C361.9 275.08 361.91 275.13 361.91 275.17Z" fill="#00FFFF"/>
<path d="M361.91 275.34C361.92 281.2 354.55 286.05 345.36 286.2C336.12 286.35 328.56 281.68 328.46 275.78V276.38C328.55 282.28 336.12 286.95 345.35 286.8C354.59 286.65 362 281.75 361.9 275.85L361.91 275.34Z" fill="#00FFFF"/>
<path d="M361.91 268.6V268.47H361.9C361.9 268.51 361.91 268.55 361.91 268.6Z" fill="#00FFFF"/>
<path d="M361.91 268.76C361.92 274.62 354.55 279.47 345.36 279.62C336.12 279.77 328.56 275.1 328.46 269.2V271.62C328.55 277.52 336.12 282.19 345.35 282.04C354.59 281.89 362 276.99 361.9 271.09L361.91 268.76Z" fill="#00FFFF"/>
<path d="M361.91 264.4V264.27H361.9C361.9 264.31 361.91 264.36 361.91 264.4Z" fill="#00FFFF"/>
<path d="M361.91 264.56C361.92 270.42 354.55 275.27 345.36 275.42C336.12 275.57 328.56 270.9 328.46 265V265.6C328.55 271.5 336.12 276.17 345.35 276.02C354.59 275.87 362 270.97 361.9 265.07L361.91 264.56Z" fill="#00FFFF"/>
<path d="M361.91 257.82V257.69H361.9C361.9 257.73 361.91 257.78 361.91 257.82Z" fill="#00FFFF"/>
<path d="M361.91 257.99C361.92 263.85 354.55 268.7 345.36 268.85C336.12 269 328.56 264.33 328.46 258.43V260.85C328.55 266.75 336.12 271.42 345.35 271.27C354.59 271.12 362 266.22 361.9 260.32L361.91 257.99Z" fill="#00FFFF"/>
<path d="M361.91 253.63V253.5H361.9C361.9 253.54 361.91 253.58 361.91 253.63Z" fill="#00FFFF"/>
<path d="M361.91 253.79C361.92 259.65 354.55 264.5 345.36 264.65C336.12 264.8 328.56 260.13 328.46 254.23V254.83C328.55 260.73 336.12 265.4 345.35 265.25C354.59 265.1 362 260.2 361.9 254.3L361.91 253.79Z" fill="#00FFFF"/>
<path d="M361.91 247.05V246.92H361.9C361.9 246.96 361.91 247 361.91 247.05Z" fill="#00FFFF"/>
<path d="M361.91 247.21C361.92 253.07 354.55 257.92 345.36 258.07C336.12 258.22 328.56 253.55 328.46 247.65V250.07C328.55 255.97 336.12 260.64 345.35 260.49C354.59 260.34 362 255.44 361.9 249.54L361.91 247.21Z" fill="#00FFFF"/>
<path d="M361.91 242.86V242.73H361.9C361.9 242.77 361.91 242.81 361.91 242.86Z" fill="#00FFFF"/>
<path d="M361.91 243.02C361.92 248.88 354.55 253.73 345.36 253.88C336.12 254.03 328.56 249.36 328.46 243.46V244.06C328.55 249.96 336.12 254.63 345.35 254.48C354.59 254.33 362 249.43 361.9 243.53L361.91 243.02Z" fill="#00FFFF"/>
<path d="M361.91 236.28V236.15H361.9C361.9 236.19 361.91 236.23 361.91 236.28Z" fill="#00FFFF"/>
<path d="M361.91 236.44C361.92 242.3 354.55 247.15 345.36 247.3C336.12 247.45 328.56 242.78 328.46 236.88V239.3C328.55 245.2 336.12 249.87 345.35 249.72C354.59 249.57 362 244.67 361.9 238.77L361.91 236.44Z" fill="#00FFFF"/>
<path d="M361.91 232.08V231.95H361.9C361.9 231.99 361.91 232.04 361.91 232.08Z" fill="#00FFFF"/>
<path d="M361.91 232.25C361.92 238.11 354.55 242.96 345.36 243.11C336.12 243.26 328.56 238.59 328.46 232.69V233.29C328.55 239.19 336.12 243.86 345.35 243.71C354.59 243.56 362 238.66 361.9 232.76L361.91 232.25Z" fill="#00FFFF"/>
<path d="M361.91 225.5V225.37H361.9C361.9 225.41 361.91 225.46 361.91 225.5Z" fill="#00FFFF"/>
<path d="M361.91 225.67C361.92 231.53 354.55 236.38 345.36 236.53C336.12 236.68 328.56 232.01 328.46 226.11V228.53C328.55 234.43 336.12 239.1 345.35 238.95C354.59 238.8 362 233.9 361.9 228L361.91 225.67Z" fill="#00FFFF"/>
<path d="M361.91 221.31V221.18H361.9C361.9 221.22 361.91 221.26 361.91 221.31Z" fill="#00FFFF"/>
<path d="M361.91 221.47C361.92 227.33 354.55 232.18 345.36 232.33C336.12 232.48 328.56 227.81 328.46 221.91V222.51C328.55 228.41 336.12 233.08 345.35 232.93C354.59 232.78 362 227.88 361.9 221.98L361.91 221.47Z" fill="#00FFFF"/>
<path d="M361.91 214.73V214.6H361.9C361.9 214.64 361.91 214.69 361.91 214.73Z" fill="#00FFFF"/>
<path d="M361.91 214.89C361.92 220.75 354.55 225.6 345.36 225.75C336.12 225.9 328.56 221.23 328.46 215.33V217.75C328.55 223.65 336.12 228.32 345.35 228.17C354.59 228.02 362 223.12 361.9 217.22L361.91 214.89Z" fill="#00FFFF"/>
<path d="M361.91 210.54V210.41H361.9C361.9 210.45 361.91 210.49 361.91 210.54Z" fill="#00FFFF"/>
<path d="M361.91 210.7C361.92 216.56 354.55 221.41 345.36 221.56C336.12 221.71 328.56 217.04 328.46 211.14V211.74C328.55 217.64 336.12 222.31 345.35 222.16C354.59 222.01 362 217.11 361.9 211.21L361.91 210.7Z" fill="#00FFFF"/>
<path d="M361.91 203.96V203.83H361.9C361.9 203.87 361.91 203.91 361.91 203.96Z" fill="#00FFFF"/>
<path d="M361.91 204.12C361.92 209.98 354.55 214.83 345.36 214.98C336.12 215.13 328.56 210.46 328.46 204.56V206.98C328.55 212.88 336.12 217.55 345.35 217.4C354.59 217.25 362 212.35 361.9 206.45L361.91 204.12Z" fill="#00FFFF"/>
<path d="M361.91 199.76V199.63H361.9C361.9 199.67 361.91 199.72 361.91 199.76Z" fill="#00FFFF"/>
<path d="M361.91 199.93C361.92 205.79 354.55 210.64 345.36 210.79C336.12 210.94 328.56 206.27 328.46 200.37V200.97C328.55 206.87 336.12 211.54 345.35 211.39C354.59 211.24 362 206.34 361.9 200.44L361.91 199.93Z" fill="#00FFFF"/>
<path d="M361.91 193.19V193.06H361.9C361.9 193.1 361.91 193.14 361.91 193.19Z" fill="#00FFFF"/>
<path d="M361.91 193.35C361.92 199.21 354.55 204.06 345.36 204.21C336.12 204.36 328.56 199.69 328.46 193.79V196.21C328.55 202.11 336.12 206.78 345.35 206.63C354.59 206.48 362 201.58 361.9 195.68L361.91 193.35Z" fill="#00FFFF"/>
<path d="M361.91 188.99V188.86H361.9C361.9 188.9 361.91 188.94 361.91 188.99Z" fill="#00FFFF"/>
<path d="M361.91 189.15C361.92 195.01 354.55 199.86 345.36 200.01C336.12 200.16 328.56 195.49 328.46 189.59V190.19C328.55 196.09 336.12 200.76 345.35 200.61C354.59 200.46 362 195.56 361.9 189.66L361.91 189.15Z" fill="#00FFFF"/>
<path d="M361.91 182.41V182.28H361.9C361.9 182.32 361.91 182.37 361.91 182.41Z" fill="#00FFFF"/>
<path d="M361.91 182.58C361.92 188.44 354.55 193.29 345.36 193.44C336.12 193.59 328.56 188.92 328.46 183.02V185.44C328.55 191.34 336.12 196.01 345.35 195.86C354.59 195.71 362 190.81 361.9 184.91L361.91 182.58Z" fill="#00FFFF"/>
<path d="M361.91 178.22V178.09H361.9C361.9 178.13 361.91 178.17 361.91 178.22Z" fill="#00FFFF"/>
<path d="M361.91 178.38C361.92 184.24 354.55 189.09 345.36 189.24C336.12 189.39 328.56 184.72 328.46 178.82V179.42C328.55 185.32 336.12 189.99 345.35 189.84C354.59 189.69 362 184.79 361.9 178.89L361.91 178.38Z" fill="#00FFFF"/>
<path d="M81.3701 271.43L106.78 256.88L156.2 285.2L130.79 299.75L81.3701 271.43Z" fill="#1A88E2"/>
<path d="M81.3701 271.43V280.86L130.79 309.19V299.75L81.3701 271.43Z" fill="#084E82"/>
<path d="M156.2 285.2V294.64L130.79 309.19V299.75L156.2 285.2Z" fill="#0B56A0"/>
<path d="M86.03 179.46L108.28 166.72L151.54 191.52L129.29 204.26L86.03 179.46Z" fill="#1A88E2"/>
<path d="M86.03 179.46V271.75L129.29 296.55V204.26L86.03 179.46Z" fill="#084E82"/>
<path d="M151.54 191.52V283.81L129.29 296.55V204.26L151.54 191.52Z" fill="#0B56A0"/>
<path d="M92.5601 180.66L110.37 170.46L145.01 190.31L127.2 200.52L92.5601 180.66Z" fill="#086DA5"/>
<path d="M92.5 190.72V192.28L105.05 199.52V197.95L92.5 190.72Z" fill="#00FFFF"/>
<path d="M92.5 197.29V198.86L105.05 206.09V204.52L92.5 197.29Z" fill="#00FFFF"/>
<path d="M92.5 203.86V205.43L105.05 212.66V211.09L92.5 203.86Z" fill="#00FFFF"/>
<path d="M92.5 210.43V212L105.05 219.23V217.66L92.5 210.43Z" fill="#00FFFF"/>
<path d="M92.5 217.01V218.57L105.05 225.8V224.24L92.5 217.01Z" fill="#00FFFF"/>
<path d="M92.5 223.58V225.14L105.05 232.37V230.81L92.5 223.58Z" fill="#00FFFF"/>
<path d="M92.5 230.15V231.71L105.05 238.95V237.38L92.5 230.15Z" fill="#00FFFF"/>
<path d="M92.5 236.72V238.29L105.05 245.52V243.95L92.5 236.72Z" fill="#00FFFF"/>
<path d="M92.5 243.29V244.86L105.05 252.09V250.52L92.5 243.29Z" fill="#00FFFF"/>
<path d="M92.5 249.86V251.43L105.05 258.66V257.1L92.5 249.86Z" fill="#00FFFF"/>
<path d="M92.5 256.44V258L105.05 265.23V263.67L92.5 256.44Z" fill="#00FFFF"/>
<path d="M92.5 263.01V264.57L105.05 271.81V270.24L92.5 263.01Z" fill="#00FFFF"/>
<path d="M92.5 269.58V271.15L105.05 278.38V276.81L92.5 269.58Z" fill="#00FFFF"/>
<path d="M110.27 201.05V202.61L122.82 209.85V208.28L110.27 201.05Z" fill="#00FFFF"/>
<path d="M110.27 207.62V209.19L122.82 216.42V214.85L110.27 207.62Z" fill="#00FFFF"/>
<path d="M110.27 214.19V215.76L122.82 222.99V221.42L110.27 214.19Z" fill="#00FFFF"/>
<path d="M110.27 220.76V222.33L122.82 229.56V228L110.27 220.76Z" fill="#00FFFF"/>
<path d="M110.27 227.34V228.9L122.82 236.13V234.57L110.27 227.34Z" fill="#00FFFF"/>
<path d="M110.27 233.91V235.47L122.82 242.7V241.14L110.27 233.91Z" fill="#00FFFF"/>
<path d="M110.27 240.48V242.04L122.82 249.28V247.71L110.27 240.48Z" fill="#00FFFF"/>
<path d="M110.27 247.05V248.62L122.82 255.85V254.28L110.27 247.05Z" fill="#00FFFF"/>
<path d="M110.27 253.62V255.19L122.82 262.42V260.85L110.27 253.62Z" fill="#00FFFF"/>
<path d="M110.27 260.19V261.76L122.82 268.99V267.43L110.27 260.19Z" fill="#00FFFF"/>
<path d="M110.27 266.77V268.33L122.82 275.56V274L110.27 266.77Z" fill="#00FFFF"/>
<path d="M110.27 273.34V274.9L122.82 282.14V280.57L110.27 273.34Z" fill="#00FFFF"/>
<path d="M110.27 279.91V281.48L122.82 288.71V287.14L110.27 279.91Z" fill="#00FFFF"/>
<path d="M130.73 210.24L149.05 199.75L150.1 200.36L131.78 210.84L130.73 210.24Z" fill="#00FFFF"/>
<path d="M130.73 210.24V286.23L131.78 286.83V210.84L130.73 210.24Z" fill="#04ADA4"/>
<path d="M150.1 200.36V276.34L131.78 286.83V210.84L150.1 200.36Z" fill="#02C9C3"/>
<path d="M231.71 230.65L255.54 216.26L301.88 244.28L278.05 258.67L231.71 230.65Z" fill="#1A88E2"/>
<path d="M238.7 232.01L257.78 220.49L294.89 242.92L275.81 254.45L238.7 232.01Z" fill="#086DA5"/>
<path d="M231.71 230.65V334.95L278.05 362.96V258.67L231.71 230.65Z" fill="#023E63"/>
<path d="M235.33 241.79V243.56L273.73 266.77V265L235.33 241.79Z" fill="#00FFFF"/>
<path d="M235.33 249.21V250.98L273.73 274.2V272.43L235.33 249.21Z" fill="#00FFFF"/>
<path d="M235.33 256.64V258.41L273.73 281.62V279.85L235.33 256.64Z" fill="#00FFFF"/>
<path d="M235.33 264.06V265.83L273.73 289.05V287.28L235.33 264.06Z" fill="#00FFFF"/>
<path d="M235.33 271.49V273.26L273.73 296.47V294.71L235.33 271.49Z" fill="#00FFFF"/>
<path d="M235.33 278.92V280.69L273.73 303.9V302.13L235.33 278.92Z" fill="#00FFFF"/>
<path d="M235.33 286.34V288.11L273.73 311.33V309.56L235.33 286.34Z" fill="#00FFFF"/>
<path d="M235.33 293.77V295.54L273.73 318.75V316.98L235.33 293.77Z" fill="#00FFFF"/>
<path d="M235.33 301.2V302.96L273.73 326.18V324.41L235.33 301.2Z" fill="#00FFFF"/>
<path d="M235.33 308.62V310.39L273.73 333.6V331.84L235.33 308.62Z" fill="#00FFFF"/>
<path d="M235.33 316.05V317.82L273.73 341.03V339.26L235.33 316.05Z" fill="#00FFFF"/>
<path d="M235.33 323.47V325.24L273.73 348.46V346.69L235.33 323.47Z" fill="#00FFFF"/>
<path d="M235.33 330.9V332.67L273.73 355.88V354.11L235.33 330.9Z" fill="#00FFFF"/>
<path d="M301.88 244.28V348.57L278.05 362.96V258.67L301.88 244.28Z" fill="#0B56A0"/>
<path d="M256.98 233.43L264.14 229.1L278.05 237.52L270.9 241.84L256.98 233.43Z" fill="#1A88E2"/>
<path d="M256.98 233.43V235.87L270.9 244.28V241.84L256.98 233.43Z" fill="#084E82"/>
<path d="M278.05 237.52V239.96L270.9 244.28V241.84L278.05 237.52Z" fill="#0B56A0"/>
<path d="M299.87 254.38V256.15L281.78 267.13L281.79 265.36L299.87 254.38Z" fill="#00FFFF"/>
<path d="M299.87 261.81V263.58L281.78 274.56L281.79 272.79L299.87 261.81Z" fill="#00FFFF"/>
<path d="M299.87 269.23V271L281.78 281.99L281.79 280.22L299.87 269.23Z" fill="#00FFFF"/>
<path d="M299.87 276.66V278.43L281.78 289.41L281.79 287.64L299.87 276.66Z" fill="#00FFFF"/>
<path d="M299.87 284.09V285.85L281.78 296.84L281.79 295.07L299.87 284.09Z" fill="#00FFFF"/>
<path d="M299.87 291.51V293.28L281.78 304.26L281.79 302.5L299.87 291.51Z" fill="#00FFFF"/>
<path d="M299.87 298.94V300.71L281.78 311.69L281.79 309.92L299.87 298.94Z" fill="#00FFFF"/>
<path d="M299.87 306.36V308.13L281.78 319.12L281.79 317.35L299.87 306.36Z" fill="#00FFFF"/>
<path d="M299.87 313.79V315.56L281.78 326.54L281.79 324.77L299.87 313.79Z" fill="#00FFFF"/>
<path d="M299.87 321.22V322.98L281.78 333.97L281.79 332.2L299.87 321.22Z" fill="#00FFFF"/>
<path d="M299.87 328.64V330.41L281.78 341.39L281.79 339.63L299.87 328.64Z" fill="#00FFFF"/>
<path d="M299.87 336.07V337.84L281.78 348.82L281.79 347.05L299.87 336.07Z" fill="#00FFFF"/>
<path d="M299.87 343.49V345.26L281.78 356.25L281.79 354.48L299.87 343.49Z" fill="#00FFFF"/>
<path d="M223.4 359.04L164.84 356.14V361.78L167.52 363.33L206.09 385.6C216.8 391.78 229.99 391.78 240.7 385.6L267.32 370.23V364.59L223.4 359.04Z" fill="#015E68"/>
<path d="M208.76 330.78L164.84 356.14L206.1 379.96C216.81 386.14 230 386.14 240.71 379.96L267.33 364.59L208.76 330.78Z" fill="#0098A0"/>
<path d="M222.28 294.29L172.75 291.84V355.81L175.02 357.12L207.65 375.96C216.71 381.19 227.87 381.19 236.92 375.96L259.43 362.96V298.99L222.28 294.29Z" fill="#015E68"/>
<path d="M209.89 270.39L172.74 291.84L207.64 311.99C216.7 317.22 227.86 317.22 236.91 311.99L259.42 298.99L209.89 270.39Z" fill="#0098A0"/>
<path d="M210.78 273.64L178.94 292.02L208.85 309.29C216.61 313.77 226.18 313.77 233.94 309.29L253.24 298.15L210.78 273.64Z" fill="#017F7F"/>
<path d="M210.78 276.89L250.42 299.78L253.23 298.15L210.78 273.64L178.93 292.03L181.75 293.65L210.78 276.89Z" fill="#02605D"/>
<path d="M259.43 356.44L236.92 369.44C227.86 374.67 216.7 374.67 207.65 369.44L172.75 349.29V352.55L175.02 353.86L207.65 372.7C216.71 377.93 227.87 377.93 236.92 372.7L259.43 359.7V356.44Z" fill="#0BFF6E"/>
<path d="M259.43 349.59L236.92 362.59C227.86 367.82 216.7 367.82 207.65 362.59L172.75 342.44V345.7L175.02 347.01L207.65 365.85C216.71 371.08 227.87 371.08 236.92 365.85L259.43 352.85V349.59Z" fill="#0BFF6E"/>
<path d="M259.43 342.75L236.92 355.75C227.86 360.98 216.7 360.98 207.65 355.75L172.75 335.6V338.86L175.02 340.17L207.65 359.01C216.71 364.24 227.87 364.24 236.92 359.01L259.43 346.01V342.75Z" fill="#0BFF6E"/>
<path d="M259.43 335.9L236.92 348.9C227.86 354.13 216.7 354.13 207.65 348.9L172.75 328.75V332.01L175.02 333.32L207.65 352.16C216.71 357.39 227.87 357.39 236.92 352.16L259.43 339.16V335.9Z" fill="#0BFF6E"/>
<path d="M259.43 329.06L236.92 342.06C227.86 347.29 216.7 347.29 207.65 342.06L172.75 321.91V325.17L175.02 326.48L207.65 345.32C216.71 350.55 227.87 350.55 236.92 345.32L259.43 332.32V329.06Z" fill="#0BFF6E"/>
<path d="M259.43 322.21L236.92 335.21C227.86 340.44 216.7 340.44 207.65 335.21L172.75 315.06V318.32L175.02 319.63L207.65 338.47C216.71 343.7 227.87 343.7 236.92 338.47L259.43 325.47V322.21Z" fill="#0BFF6E"/>
<path d="M259.43 315.37L236.92 328.37C227.86 333.6 216.7 333.6 207.65 328.37L172.75 308.22V311.48L175.02 312.79L207.65 331.63C216.71 336.86 227.87 336.86 236.92 331.63L259.43 318.63V315.37Z" fill="#0BFF6E"/>
<path d="M259.43 308.52L236.92 321.52C227.86 326.75 216.7 326.75 207.65 321.52L172.75 301.37V304.63L175.02 305.94L207.65 324.78C216.71 330.01 227.87 330.01 236.92 324.78L259.43 311.78V308.52Z" fill="#0BFF6E"/>
<path d="M259.43 301.67L236.92 314.67C227.86 319.9 216.7 319.9 207.65 314.67L172.75 294.52V297.78L175.02 299.09L207.65 317.93C216.71 323.16 227.87 323.16 236.92 317.93L259.43 304.93V301.67Z" fill="#0BFF6E"/>
<path d="M116.82 330.42C117.29 330.41 117.67 330.16 117.67 329.86V321.1L115.96 321.14V329.89C115.96 330.18 116.34 330.42 116.82 330.42Z" fill="#19A39F"/>
<path d="M116.8 320.57C116.33 320.58 115.95 320.83 115.95 321.13C115.95 321.43 116.34 321.67 116.82 321.66C117.29 321.65 117.67 321.4 117.67 321.1C117.66 320.81 117.27 320.57 116.8 320.57Z" fill="#7D7D7D"/>
<path d="M117.11 324.63C119.838 324.63 122.05 322.418 122.05 319.69C122.05 316.962 119.838 314.75 117.11 314.75C114.382 314.75 112.17 316.962 112.17 319.69C112.17 322.418 114.382 324.63 117.11 324.63Z" fill="white"/>
<path d="M114.49 324.09C116.467 324.09 118.07 322.487 118.07 320.51C118.07 318.533 116.467 316.93 114.49 316.93C112.513 316.93 110.91 318.533 110.91 320.51C110.91 322.487 112.513 324.09 114.49 324.09Z" fill="white"/>
<path d="M102.04 183.31C102.13 188.97 109.38 193.44 118.23 193.3C127.08 193.16 134.19 188.46 134.09 182.8V100.96H102.03V183.31H102.04Z" fill="url(#paint3_linear_288_2)"/>
<path d="M106.66 183.49C106.73 187.6 111.99 190.84 118.41 190.74C124.84 190.64 129.99 187.23 129.93 183.12V123.72H106.66V183.49Z" fill="url(#paint4_linear_288_2)"/>
<path d="M150.86 159.3C150.95 164.96 158.2 169.43 167.05 169.29C175.9 169.15 183.01 164.45 182.91 158.79V76.9501H150.85V159.3H150.86Z" fill="url(#paint5_linear_288_2)"/>
<path d="M155.48 159.48C155.55 163.59 160.81 166.83 167.23 166.73C173.66 166.63 178.81 163.22 178.75 159.11V99.7101H155.48V159.48Z" fill="url(#paint6_linear_288_2)"/>
<path d="M220.39 145.27C220.48 150.93 227.73 155.4 236.58 155.26C245.43 155.12 252.54 150.42 252.44 144.76V62.92H220.38V145.27H220.39Z" fill="url(#paint7_linear_288_2)"/>
<path d="M225.01 145.45C225.08 149.56 230.34 152.8 236.76 152.7C243.19 152.6 248.34 149.19 248.28 145.08V85.6801H225.01V145.45Z" fill="url(#paint8_linear_288_2)"/>
<path d="M201.23 98.64C201.32 104.3 208.57 108.77 217.42 108.63C226.27 108.49 233.38 103.79 233.29 98.13V16.28H201.23V98.64Z" fill="url(#paint9_linear_288_2)"/>
<path d="M205.85 98.82C205.92 102.93 211.18 106.17 217.6 106.07C224.03 105.97 229.18 102.56 229.11 98.45V39.05H205.84V98.82H205.85Z" fill="url(#paint10_linear_288_2)"/>
<path d="M274.8 78.25C274.89 83.91 282.14 88.38 290.99 88.24C299.84 88.1 306.95 83.4 306.85 77.74V-4.09998H274.8V78.25Z" fill="url(#paint11_linear_288_2)"/>
<path d="M279.42 78.43C279.49 82.54 284.75 85.78 291.17 85.68C297.6 85.58 302.75 82.17 302.68 78.06V18.66H279.41V78.43H279.42Z" fill="url(#paint12_linear_288_2)"/>
<path d="M366.56 84.61C366.65 90.27 373.9 94.74 382.75 94.6C391.6 94.46 398.71 89.76 398.61 84.1V2.26001H366.55V84.61H366.56Z" fill="url(#paint13_linear_288_2)"/>
<path d="M371.17 84.79C371.24 88.9 376.5 92.14 382.92 92.04C389.35 91.94 394.5 88.53 394.44 84.42V25.02H371.17V84.79Z" fill="url(#paint14_linear_288_2)"/>
<path d="M330.04 157.05C330.13 162.71 337.38 167.18 346.23 167.04C355.08 166.9 362.19 162.2 362.1 156.54V74.7001H330.04V157.05Z" fill="url(#paint15_linear_288_2)"/>
<path d="M334.66 157.23C334.73 161.34 339.99 164.58 346.41 164.48C352.84 164.38 357.99 160.97 357.93 156.86V97.4601H334.66V157.23Z" fill="url(#paint16_linear_288_2)"/>
<path d="M284.7 114.77C284.79 120.43 292.04 124.9 300.89 124.76C309.74 124.62 316.85 119.92 316.75 114.26V32.42H284.7V114.77Z" fill="url(#paint17_linear_288_2)"/>
<path d="M289.31 114.95C289.38 119.06 294.64 122.3 301.06 122.2C307.49 122.1 312.64 118.69 312.58 114.58V55.1801H289.31V114.95Z" fill="url(#paint18_linear_288_2)"/>
<path d="M249.44 235.36C249.53 241.02 256.78 245.49 265.63 245.35C274.48 245.21 281.59 240.51 281.5 234.85V153.01H249.44V235.36Z" fill="url(#paint19_linear_288_2)"/>
<path d="M254.06 235.54C254.13 239.65 259.39 242.89 265.81 242.79C272.24 242.69 277.39 239.28 277.33 235.17V175.77H254.06V235.54Z" fill="url(#paint20_linear_288_2)"/>
<path d="M203.78 296.79C203.87 302.45 211.12 306.92 219.97 306.78C228.82 306.64 235.93 301.94 235.84 296.28V214.44H203.78V296.79Z" fill="url(#paint21_linear_288_2)"/>
<path d="M208.4 296.97C208.47 301.08 213.73 304.32 220.15 304.22C226.58 304.12 231.73 300.71 231.66 296.6V237.2H208.4V296.97Z" fill="url(#paint22_linear_288_2)"/>
<path d="M333.29 353.61C333.89 353.6 334.37 353.28 334.37 352.9V341.78L332.19 341.83V352.93C332.2 353.31 332.69 353.62 333.29 353.61Z" fill="#19A39F"/>
<path d="M333.27 341.11C332.67 341.12 332.19 341.44 332.19 341.82C332.2 342.2 332.69 342.51 333.29 342.5C333.89 342.49 334.37 342.17 334.37 341.79C334.36 341.41 333.87 341.1 333.27 341.11Z" fill="#7D7D7D"/>
<path d="M339.92 339.99C339.92 343.45 337.11 346.26 333.65 346.26C330.19 346.26 327.38 343.45 327.38 339.99C327.38 336.53 330.19 333.72 333.65 333.72C337.12 333.72 339.92 336.53 339.92 339.99Z" fill="white"/>
<path d="M336 341.03C336 344.16 333.46 346.7 330.33 346.7C327.2 346.7 324.66 344.16 324.66 341.03C324.66 337.9 327.2 335.36 330.33 335.36C333.46 335.36 336 337.9 336 341.03Z" fill="white"/>
<path d="M336.5 336.56C336.5 339.69 333.96 342.23 330.83 342.23C327.7 342.23 325.16 339.69 325.16 336.56C325.16 333.43 327.7 330.89 330.83 330.89C333.96 330.89 336.5 333.43 336.5 336.56Z" fill="white"/>
<path d="M341.9 337.57C341.9 340.7 339.36 343.24 336.23 343.24C333.1 343.24 330.56 340.7 330.56 337.57C330.56 334.44 333.1 331.9 336.23 331.9C339.36 331.9 341.9 334.44 341.9 337.57Z" fill="white"/>
<path d="M341.56 342.22C341.56 344.21 339.95 345.82 337.96 345.82C335.97 345.82 334.36 344.21 334.36 342.22C334.36 340.23 335.97 338.62 337.96 338.62C339.95 338.63 341.56 340.24 341.56 342.22Z" fill="white"/>
<path d="M107.49 325.09C107.96 325.08 108.34 324.83 108.34 324.53V315.77L106.63 315.81V324.56C106.63 324.86 107.02 325.09 107.49 325.09Z" fill="#19A39F"/>
<path d="M107.48 315.25C107.01 315.26 106.63 315.51 106.63 315.81C106.63 316.11 107.02 316.35 107.5 316.34C107.97 316.33 108.35 316.08 108.35 315.78C108.34 315.48 107.95 315.24 107.48 315.25Z" fill="#7D7D7D"/>
<path d="M107.78 319.3C110.508 319.3 112.72 317.088 112.72 314.36C112.72 311.632 110.508 309.42 107.78 309.42C105.052 309.42 102.84 311.632 102.84 314.36C102.84 317.088 105.052 319.3 107.78 319.3Z" fill="white"/>
<path d="M112.96 313.01C112.96 314.99 111.36 316.59 109.38 316.59C107.4 316.59 105.8 314.99 105.8 313.01C105.8 311.03 107.4 309.43 109.38 309.43C111.36 309.43 112.96 311.03 112.96 313.01Z" fill="white"/>
<path d="M98.1701 319.76C98.6401 319.75 99.0201 319.5 99.0201 319.2V310.44L97.3101 310.48V319.23C97.3101 319.53 97.7001 319.77 98.1701 319.76Z" fill="#19A39F"/>
<path d="M98.15 309.92C97.68 309.93 97.3 310.18 97.3 310.48C97.3 310.78 97.69 311.02 98.17 311.01C98.64 311 99.02 310.75 99.02 310.45C99.01 310.15 98.62 309.91 98.15 309.92Z" fill="#7D7D7D"/>
<path d="M98.46 313.97C101.188 313.97 103.4 311.758 103.4 309.03C103.4 306.302 101.188 304.09 98.46 304.09C95.7317 304.09 93.52 306.302 93.52 309.03C93.52 311.758 95.7317 313.97 98.46 313.97Z" fill="white"/>
<path d="M101.58 306.27C101.58 308.25 99.9799 309.85 97.9999 309.85C96.0199 309.85 94.4199 308.25 94.4199 306.27C94.4199 304.29 96.0199 302.69 97.9999 302.69C99.9799 302.69 101.58 304.3 101.58 306.27Z" fill="white"/>
<path d="M382.45 87.11C388.89 87.11 394.11 81.8897 394.11 75.45C394.11 69.0104 388.89 63.79 382.45 63.79C376.01 63.79 370.79 69.0104 370.79 75.45C370.79 81.8897 376.01 87.11 382.45 87.11Z" fill="white"/>
<path d="M382.45 70.64C378.89 70.64 375.79 72.58 374.12 75.45C375.79 78.32 378.89 80.26 382.45 80.26C386.01 80.26 389.11 78.32 390.78 75.45C389.11 72.58 386.01 70.64 382.45 70.64ZM382.58 78.59C380.85 78.59 379.44 77.18 379.44 75.45C379.44 73.72 380.85 72.31 382.58 72.31C384.31 72.31 385.72 73.72 385.72 75.45C385.72 77.18 384.32 78.59 382.58 78.59Z" fill="#063947"/>
<path d="M294.35 67.3801C294.35 69.3301 292.77 70.9001 290.83 70.9001C288.89 70.9001 287.31 69.3201 287.31 67.3801C287.31 65.4301 288.89 63.8601 290.83 63.8601C292.77 63.8601 294.35 65.4301 294.35 67.3801Z" fill="white"/>
<path d="M297.58 62.45C296.06 60.37 293.6 59.01 290.83 59.01C288.05 59.01 285.6 60.37 284.08 62.45" stroke="white" strokeWidth="2.1563" stroke-miterlimit="10" stroke-linecap="round"/>
<path d="M300.34 58.72C298.2 55.78 294.74 53.87 290.83 53.87C286.92 53.87 283.46 55.78 281.32 58.72" stroke="white" strokeWidth="2.1563" stroke-miterlimit="10" stroke-linecap="round"/>
<path d="M303.24 54.7601C300.44 50.9301 295.93 48.4301 290.83 48.4301C285.72 48.4301 281.21 50.9301 278.42 54.7601" stroke="white" strokeWidth="2.1563" stroke-miterlimit="10" stroke-linecap="round"/>
<path d="M228.52 76.22H202.96C201.76 76.22 200.78 77.2 200.78 78.4V91.09C200.78 92.29 201.76 93.27 202.96 93.27H204.14V99.54L210.41 93.27H228.52C229.72 93.27 230.7 92.29 230.7 91.09V78.4C230.7 77.2 229.73 76.22 228.52 76.22ZM208.26 87.12C207.04 87.12 206.04 86.13 206.04 84.9C206.04 83.67 207.03 82.68 208.26 82.68C209.49 82.68 210.48 83.67 210.48 84.9C210.48 86.13 209.49 87.12 208.26 87.12ZM215.74 87.12C214.52 87.12 213.52 86.13 213.52 84.9C213.52 83.67 214.51 82.68 215.74 82.68C216.97 82.68 217.96 83.67 217.96 84.9C217.96 86.13 216.97 87.12 215.74 87.12ZM223.22 87.12C222 87.12 221 86.13 221 84.9C221 83.67 221.99 82.68 223.22 82.68C224.45 82.68 225.44 83.67 225.44 84.9C225.44 86.13 224.45 87.12 223.22 87.12Z" fill="white"/>
<path d="M238.73 124.67C232.29 124.67 227.07 129.89 227.07 136.33C227.07 142.77 232.29 147.99 238.73 147.99C245.17 147.99 250.39 142.77 250.39 136.33C250.39 129.89 245.17 124.67 238.73 124.67ZM246.58 134.98L243.39 138.09C243.23 138.24 243.16 138.46 243.2 138.68L243.95 143.07C244.04 143.61 243.47 144.03 242.99 143.77L239.04 141.7C238.85 141.6 238.62 141.6 238.42 141.7L234.47 143.77C233.98 144.03 233.41 143.61 233.51 143.07L234.26 138.68C234.3 138.46 234.23 138.24 234.07 138.09L230.88 134.98C230.49 134.6 230.7 133.93 231.25 133.85L235.66 133.21C235.88 133.18 236.06 133.04 236.16 132.85L238.13 128.85C238.37 128.36 239.08 128.36 239.32 128.85L241.29 132.85C241.39 133.05 241.57 133.18 241.79 133.21L246.2 133.85C246.76 133.92 246.97 134.59 246.58 134.98Z" fill="white"/>
<path d="M267.16 222.78C269.69 222.05 271.53 219.72 271.53 216.96C271.53 213.61 268.82 210.9 265.47 210.9C262.12 210.9 259.41 213.61 259.41 216.96C259.41 219.72 261.26 222.05 263.79 222.78C259.86 223.56 256.9 227.03 256.9 231.19V234.21H274.06V231.19C274.05 227.03 271.09 223.56 267.16 222.78Z" fill="white"/>
<path d="M308.79 112.709C313.343 108.156 313.343 100.773 308.79 96.2197C304.236 91.6662 296.853 91.6662 292.3 96.2197C287.746 100.773 287.746 108.156 292.3 112.709C296.853 117.263 304.236 117.263 308.79 112.709Z" fill="white"/>
<path d="M303.62 96.4701L295.65 105.58H299.63L297.33 112.36L305.46 103.72H301.06L303.62 96.4701Z" fill="#063947"/>
<path d="M219.85 299.11C226.29 299.11 231.51 293.89 231.51 287.45C231.51 281.01 226.29 275.79 219.85 275.79C213.41 275.79 208.19 281.01 208.19 287.45C208.19 293.89 213.41 299.11 219.85 299.11Z" fill="white"/>
<path d="M227.96 286.14L226.17 279.37L224.61 280.75C223.22 279.73 221.55 279.17 219.8 279.17C215.31 279.17 211.66 282.82 211.66 287.31H213.53C213.53 283.85 216.34 281.04 219.8 281.04C221 281.04 222.16 281.38 223.16 282.02L221.46 283.52L227.96 286.14Z" fill="#063947"/>
<path d="M226.18 288.24C226.18 291.7 223.37 294.51 219.91 294.51C218.71 294.51 217.55 294.17 216.55 293.53L218.25 292.03L211.75 289.4L213.54 296.17L215.1 294.79C216.49 295.81 218.16 296.37 219.91 296.37C224.4 296.37 228.05 292.72 228.05 288.23H226.18V288.24Z" fill="#063947"/>
<path d="M171.09 163.102C177.039 160.637 179.865 153.816 177.4 147.867C174.936 141.917 168.115 139.092 162.165 141.557C156.216 144.021 153.39 150.842 155.855 156.791C158.319 162.741 165.14 165.566 171.09 163.102Z" fill="white"/>
<path d="M162.72 153.53C162.72 154.26 162.13 154.85 161.4 154.85C160.67 154.85 160.08 154.26 160.08 153.53C160.08 152.8 160.67 152.21 161.4 152.21C162.13 152.22 162.72 152.81 162.72 153.53Z" fill="#063947"/>
<path d="M172.99 153.53C172.99 154.26 172.4 154.85 171.67 154.85C170.94 154.85 170.35 154.26 170.35 153.53C170.35 152.8 170.94 152.21 171.67 152.21C172.4 152.22 172.99 152.81 172.99 153.53Z" fill="#063947"/>
<path d="M170.25 150.33C168.36 147.37 163.84 147.5 160.64 150.32C158.96 150.64 156.61 151.63 156.61 153.54C156.61 153.54 157.74 153.54 159.46 153.54C159.46 152.47 160.33 151.6 161.4 151.6C162.47 151.6 163.34 152.47 163.34 153.54C165.43 153.54 167.72 153.54 169.76 153.54C169.76 152.48 170.62 151.61 171.69 151.61C172.75 151.61 173.62 152.47 173.62 153.54C174.81 153.54 175.61 153.54 175.78 153.54C176.65 153.54 177.18 153.16 177.18 153.16C176.3 150.6 172.15 150.25 170.25 150.33Z" fill="#063947"/>
<path d="M129.408 177.115C130.888 170.848 127.007 164.568 120.74 163.088C114.473 161.608 108.193 165.489 106.713 171.756C105.233 178.023 109.114 184.303 115.381 185.783C121.648 187.263 127.928 183.382 129.408 177.115Z" fill="white"/>
<path d="M118.07 174.32L119.98 166.41C119.37 166.26 118.73 166.18 118.07 166.18C113.57 166.18 109.93 169.83 109.93 174.32C109.93 178.82 113.58 182.46 118.07 182.46C122.57 182.46 126.21 178.81 126.21 174.32C126.21 173.27 126 172.26 125.64 171.34L118.07 174.32Z" fill="#063947"/>
<path d="M120.9 171.48L125.37 169.72C124.8 168.28 123.55 167.18 122.02 166.81L120.9 171.48Z" fill="#063947"/>
<path d="M354.314 152.538C358.867 147.984 358.867 140.602 354.314 136.048C349.76 131.495 342.378 131.495 337.824 136.048C333.271 140.602 333.271 147.984 337.824 152.538C342.378 157.091 349.76 157.091 354.314 152.538Z" fill="white"/>
<path d="M340.43 151.19C339.84 151.19 339.37 150.72 339.37 150.13V145.43C339.37 144.84 339.84 144.37 340.43 144.37C341.02 144.37 341.49 144.84 341.49 145.43V150.13C341.49 150.72 341.01 151.19 340.43 151.19Z" fill="#063947"/>
<path d="M343.76 151.19C343.17 151.19 342.7 150.72 342.7 150.13V143.26C342.7 142.67 343.17 142.2 343.76 142.2C344.35 142.2 344.82 142.67 344.82 143.26V150.13C344.82 150.72 344.35 151.19 343.76 151.19Z" fill="#063947"/>
<path d="M347.09 151.19C346.5 151.19 346.03 150.72 346.03 150.13V140.34C346.03 139.75 346.5 139.28 347.09 139.28C347.68 139.28 348.15 139.75 348.15 140.34V150.13C348.15 150.72 347.68 151.19 347.09 151.19Z" fill="#063947"/>
<path d="M350.43 151.19C349.84 151.19 349.37 150.72 349.37 150.13V137.11C349.37 136.52 349.84 136.05 350.43 136.05C351.02 136.05 351.49 136.52 351.49 137.11V150.13C351.49 150.72 351.01 151.19 350.43 151.19Z" fill="#063947"/>
<path d="M396.47 250.23L358.2 272.33" stroke="url(#paint23_linear_288_2)" strokeWidth="1.4043" stroke-miterlimit="10" stroke-linecap="round"/>
<path d="M216.08 250.56L177.82 272.66" stroke="url(#paint24_linear_288_2)" strokeWidth="1.4043" stroke-miterlimit="10" stroke-linecap="round"/>
<path d="M315.28 355.77L277.01 377.86" stroke="url(#paint25_linear_288_2)" strokeWidth="1.4043" stroke-miterlimit="10" stroke-linecap="round"/>
<path d="M147.48 319.74L185.75 341.83" stroke="url(#paint26_linear_288_2)" strokeWidth="1.4043" stroke-miterlimit="10" stroke-linecap="round"/>
<path d="M196.95 368.97L235.22 391.07" stroke="url(#paint27_linear_288_2)" strokeWidth="1.4043" stroke-miterlimit="10" stroke-linecap="round"/>
<path d="M408.98 232.66L306.93 291.57" stroke="url(#paint28_linear_288_2)" strokeWidth="1.4043" stroke-miterlimit="10" stroke-linecap="round"/>
<path d="M360.64 183.2L258.6 242.12" stroke="url(#paint29_linear_288_2)" strokeWidth="1.4043" stroke-miterlimit="10" stroke-linecap="round"/>
<path d="M50.5601 248.33L152.61 307.25" stroke="url(#paint30_linear_288_2)" strokeWidth="1.4043" stroke-miterlimit="10" stroke-linecap="round"/>
<path d="M98.8701 141.93L159.71 177.05" stroke="url(#paint31_linear_288_2)" strokeWidth="1.4043" stroke-miterlimit="10" stroke-linecap="round"/>
<path d="M74.3601 247.68L176.4 306.6" stroke="url(#paint32_linear_288_2)" strokeWidth="1.4043" stroke-miterlimit="10" stroke-linecap="round"/>
</g>
<defs>
<linearGradient id="paint0_linear_288_2" x1="401.05" y1="190.606" x2="401.05" y2="119.931" gradientUnits="userSpaceOnUse">
<stop offset="0.0168" stop-color="white" stop-opacity="0"/>
<stop offset="1" stop-color="white"/>
</linearGradient>
<linearGradient id="paint1_linear_288_2" x1="161.328" y1="199.616" x2="161.328" y2="128.941" gradientUnits="userSpaceOnUse">
<stop offset="0.0168" stop-color="white" stop-opacity="0"/>
<stop offset="1" stop-color="white"/>
</linearGradient>
<linearGradient id="paint2_linear_288_2" x1="189.717" y1="146.214" x2="189.717" y2="75.5388" gradientUnits="userSpaceOnUse">
<stop offset="0.0168" stop-color="white" stop-opacity="0"/>
<stop offset="1" stop-color="white"/>
</linearGradient>
<linearGradient id="paint3_linear_288_2" x1="118.068" y1="193.299" x2="118.068" y2="100.958" gradientUnits="userSpaceOnUse">
<stop stop-color="white"/>
<stop offset="0.1413" stop-color="white" stop-opacity="0.8587"/>
<stop offset="1" stop-color="white" stop-opacity="0"/>
</linearGradient>
<linearGradient id="paint4_linear_288_2" x1="118.292" y1="190.739" x2="118.292" y2="123.717" gradientUnits="userSpaceOnUse">
<stop stop-color="white"/>
<stop offset="0.1413" stop-color="white" stop-opacity="0.8587"/>
<stop offset="1" stop-color="white" stop-opacity="0"/>
</linearGradient>
<linearGradient id="paint5_linear_288_2" x1="166.894" y1="169.291" x2="166.894" y2="76.9492" gradientUnits="userSpaceOnUse">
<stop stop-color="white"/>
<stop offset="0.1413" stop-color="white" stop-opacity="0.8587"/>
<stop offset="1" stop-color="white" stop-opacity="0"/>
</linearGradient>
<linearGradient id="paint6_linear_288_2" x1="167.119" y1="166.731" x2="167.119" y2="99.7082" gradientUnits="userSpaceOnUse">
<stop stop-color="white"/>
<stop offset="0.1413" stop-color="white" stop-opacity="0.8587"/>
<stop offset="1" stop-color="white" stop-opacity="0"/>
</linearGradient>
<linearGradient id="paint7_linear_288_2" x1="236.416" y1="155.258" x2="236.416" y2="62.9161" gradientUnits="userSpaceOnUse">
<stop stop-color="white"/>
<stop offset="0.1413" stop-color="white" stop-opacity="0.8587"/>
<stop offset="1" stop-color="white" stop-opacity="0"/>
</linearGradient>
<linearGradient id="paint8_linear_288_2" x1="236.64" y1="152.698" x2="236.64" y2="85.6753" gradientUnits="userSpaceOnUse">
<stop stop-color="white"/>
<stop offset="0.1413" stop-color="white" stop-opacity="0.8587"/>
<stop offset="1" stop-color="white" stop-opacity="0"/>
</linearGradient>
<linearGradient id="paint9_linear_288_2" x1="217.262" y1="108.625" x2="217.262" y2="16.284" gradientUnits="userSpaceOnUse">
<stop stop-color="white"/>
<stop offset="0.1413" stop-color="white" stop-opacity="0.8587"/>
<stop offset="1" stop-color="white" stop-opacity="0"/>
</linearGradient>
<linearGradient id="paint10_linear_288_2" x1="217.486" y1="106.066" x2="217.486" y2="39.0431" gradientUnits="userSpaceOnUse">
<stop stop-color="white"/>
<stop offset="0.1413" stop-color="white" stop-opacity="0.8587"/>
<stop offset="1" stop-color="white" stop-opacity="0"/>
</linearGradient>
<linearGradient id="paint11_linear_288_2" x1="290.83" y1="88.2396" x2="290.83" y2="-4.10178" gradientUnits="userSpaceOnUse">
<stop stop-color="white"/>
<stop offset="0.1413" stop-color="white" stop-opacity="0.8587"/>
<stop offset="1" stop-color="white" stop-opacity="0"/>
</linearGradient>
<linearGradient id="paint12_linear_288_2" x1="291.055" y1="85.6801" x2="291.055" y2="18.6573" gradientUnits="userSpaceOnUse">
<stop stop-color="white"/>
<stop offset="0.1413" stop-color="white" stop-opacity="0.8587"/>
<stop offset="1" stop-color="white" stop-opacity="0"/>
</linearGradient>
<linearGradient id="paint13_linear_288_2" x1="382.585" y1="94.6017" x2="382.585" y2="2.26031" gradientUnits="userSpaceOnUse">
<stop stop-color="white"/>
<stop offset="0.1413" stop-color="white" stop-opacity="0.8587"/>
<stop offset="1" stop-color="white" stop-opacity="0"/>
</linearGradient>
<linearGradient id="paint14_linear_288_2" x1="382.81" y1="92.0422" x2="382.81" y2="25.0194" gradientUnits="userSpaceOnUse">
<stop stop-color="white"/>
<stop offset="0.1413" stop-color="white" stop-opacity="0.8587"/>
<stop offset="1" stop-color="white" stop-opacity="0"/>
</linearGradient>
<linearGradient id="paint15_linear_288_2" x1="346.073" y1="167.044" x2="346.073" y2="74.7022" gradientUnits="userSpaceOnUse">
<stop stop-color="white"/>
<stop offset="0.1413" stop-color="white" stop-opacity="0.8587"/>
<stop offset="1" stop-color="white" stop-opacity="0"/>
</linearGradient>
<linearGradient id="paint16_linear_288_2" x1="346.298" y1="164.484" x2="346.298" y2="97.4613" gradientUnits="userSpaceOnUse">
<stop stop-color="white"/>
<stop offset="0.1413" stop-color="white" stop-opacity="0.8587"/>
<stop offset="1" stop-color="white" stop-opacity="0"/>
</linearGradient>
<linearGradient id="paint17_linear_288_2" x1="300.724" y1="124.76" x2="300.724" y2="32.4182" gradientUnits="userSpaceOnUse">
<stop stop-color="white"/>
<stop offset="0.1413" stop-color="white" stop-opacity="0.8587"/>
<stop offset="1" stop-color="white" stop-opacity="0"/>
</linearGradient>
<linearGradient id="paint18_linear_288_2" x1="300.949" y1="122.2" x2="300.949" y2="55.1774" gradientUnits="userSpaceOnUse">
<stop stop-color="white"/>
<stop offset="0.1413" stop-color="white" stop-opacity="0.8587"/>
<stop offset="1" stop-color="white" stop-opacity="0"/>
</linearGradient>
<linearGradient id="paint19_linear_288_2" x1="265.474" y1="245.352" x2="265.474" y2="153.011" gradientUnits="userSpaceOnUse">
<stop stop-color="white"/>
<stop offset="0.1413" stop-color="white" stop-opacity="0.8587"/>
<stop offset="1" stop-color="white" stop-opacity="0"/>
</linearGradient>
<linearGradient id="paint20_linear_288_2" x1="265.699" y1="242.793" x2="265.699" y2="175.77" gradientUnits="userSpaceOnUse">
<stop stop-color="white"/>
<stop offset="0.1413" stop-color="white" stop-opacity="0.8587"/>
<stop offset="1" stop-color="white" stop-opacity="0"/>
</linearGradient>
<linearGradient id="paint21_linear_288_2" x1="219.807" y1="306.777" x2="219.807" y2="214.436" gradientUnits="userSpaceOnUse">
<stop stop-color="white"/>
<stop offset="0.1413" stop-color="white" stop-opacity="0.8587"/>
<stop offset="1" stop-color="white" stop-opacity="0"/>
</linearGradient>
<linearGradient id="paint22_linear_288_2" x1="220.032" y1="304.218" x2="220.032" y2="237.195" gradientUnits="userSpaceOnUse">
<stop stop-color="white"/>
<stop offset="0.1413" stop-color="white" stop-opacity="0.8587"/>
<stop offset="1" stop-color="white" stop-opacity="0"/>
</linearGradient>
<linearGradient id="paint23_linear_288_2" x1="377.336" y1="273.029" x2="377.336" y2="249.531" gradientUnits="userSpaceOnUse">
<stop offset="0.0168" stop-color="white" stop-opacity="0"/>
<stop offset="1" stop-color="white"/>
</linearGradient>
<linearGradient id="paint24_linear_288_2" x1="196.95" y1="273.359" x2="196.95" y2="249.861" gradientUnits="userSpaceOnUse">
<stop offset="0.0168" stop-color="white" stop-opacity="0"/>
<stop offset="1" stop-color="white"/>
</linearGradient>
<linearGradient id="paint25_linear_288_2" x1="296.146" y1="378.561" x2="296.146" y2="355.063" gradientUnits="userSpaceOnUse">
<stop offset="0.0168" stop-color="white" stop-opacity="0"/>
<stop offset="1" stop-color="white"/>
</linearGradient>
<linearGradient id="paint26_linear_288_2" x1="166.618" y1="342.531" x2="166.618" y2="319.033" gradientUnits="userSpaceOnUse">
<stop offset="0.0168" stop-color="white" stop-opacity="0"/>
<stop offset="1" stop-color="white"/>
</linearGradient>
<linearGradient id="paint27_linear_288_2" x1="216.084" y1="391.769" x2="216.084" y2="368.272" gradientUnits="userSpaceOnUse">
<stop offset="0.0168" stop-color="white" stop-opacity="0"/>
<stop offset="1" stop-color="white"/>
</linearGradient>
<linearGradient id="paint28_linear_288_2" x1="357.953" y1="292.276" x2="357.953" y2="231.956" gradientUnits="userSpaceOnUse">
<stop offset="0.0168" stop-color="white" stop-opacity="0"/>
<stop offset="1" stop-color="white"/>
</linearGradient>
<linearGradient id="paint29_linear_288_2" x1="309.618" y1="242.819" x2="309.618" y2="182.499" gradientUnits="userSpaceOnUse">
<stop offset="0.0168" stop-color="white" stop-opacity="0"/>
<stop offset="1" stop-color="white"/>
</linearGradient>
<linearGradient id="paint30_linear_288_2" x1="101.584" y1="307.949" x2="101.584" y2="247.628" gradientUnits="userSpaceOnUse">
<stop offset="0.0168" stop-color="white" stop-opacity="0"/>
<stop offset="1" stop-color="white"/>
</linearGradient>
<linearGradient id="paint31_linear_288_2" x1="129.291" y1="177.755" x2="129.291" y2="141.225" gradientUnits="userSpaceOnUse">
<stop offset="0.0168" stop-color="white" stop-opacity="0"/>
<stop offset="1" stop-color="white"/>
</linearGradient>
<linearGradient id="paint32_linear_288_2" x1="125.379" y1="307.299" x2="125.379" y2="246.979" gradientUnits="userSpaceOnUse">
<stop offset="0.0168" stop-color="white" stop-opacity="0"/>
<stop offset="1" stop-color="white"/>
</linearGradient>
<clipPath id="clip0_288_2">
<rect width="500" height="500" fill="white"/>
</clipPath>
</defs>
</svg>
